<?xml version="1.0" encoding="utf-8"?>
<!-- Generator: Adobe Illustrator 16.0.0, SVG Export Plug-In . SVG Version: 6.00 Build 0)  -->
<!DOCTYPE svg PUBLIC "-//W3C//DTD SVG 1.1//EN" "http://www.w3.org/Graphics/SVG/1.1/DTD/svg11.dtd">
<svg version="1.1" id="Layer_1" xmlns="http://www.w3.org/2000/svg" xmlns:xlink="http://www.w3.org/1999/xlink" x="0px" y="0px"
	 width="394.488px" height="180.044px" viewBox="0 0 394.488 180.044" enable-background="new 0 0 394.488 180.044"
	 xml:space="preserve">
<g>
	<defs>
		<rect id="SVGID_1_" width="394.488" height="180.044"/>
	</defs>
	<clipPath id="SVGID_2_">
		<use xlink:href="#SVGID_1_"  overflow="visible"/>
	</clipPath>
	<path clip-path="url(#SVGID_2_)" fill="#A6C057" d="M353.261,73.562c0.459-0.048,0.908-0.095,1.346-0.141
		c0.436-0.061,0.858-0.121,1.27-0.179c0.407-0.073,0.799-0.144,1.179-0.212c0.337-0.072,0.659-0.143,0.97-0.214
		c-0.007,0.009-0.02,0.02-0.025,0.029c0,0-0.521,0.521-0.646,0.608l-0.688,0.674c0,0-0.627,0.742-0.987,0.732
		c-0.085-0.003-0.142,0.003-0.18,0.012c-0.579-0.247-2.327-1.014-2.386-1.299C353.161,73.569,353.212,73.566,353.261,73.562
		 M295.018,91.26c0.258,0.194,0.606,0.47,0.751,0.649c0,0,0.659,0.752,0.816,1.022l0.41,0.354c-0.102-0.047-0.204-0.096-0.307-0.143
		c-0.216-0.1-0.434-0.198-0.651-0.3l-0.641-0.331c-0.427-0.223-0.855-0.446-1.284-0.669c-0.285-0.151-0.563-0.312-0.842-0.471
		C293.857,91.346,294.518,91.309,295.018,91.26 M253.31,91.477l0.003-0.015l0.013,0.01C253.32,91.474,253.314,91.476,253.31,91.477
		 M229.398,98.846c0.527-0.415,1.081-0.855,1.663-1.326c1.002-0.814,2.081-1.705,3.204-2.668c1.128-0.959,2.296-1.994,3.491-3.078
		c0.6-0.54,1.195-1.104,1.806-1.668c0.599-0.576,1.212-1.149,1.815-1.745c0.609-0.601,1.222-1.21,1.829-1.827
		c0.956-0.121,2.289-0.301,3.219-0.475c0.389,0.242,0.913,0.588,1.139,0.821c0,0,1.022,0.981,1.28,1.344l1.357,0.982l1.361,1.384
		l0.322,0.296l-0.027-0.283c0,0,0.646,0.686,1.082,0.986C245.222,93.938,237.354,96.366,229.398,98.846 M244.974,84.693
		c0.61-0.645,1.21-1.3,1.8-1.961l-0.155,1.051c0,0-0.078,1.375-0.493,1.673c-0.097,0.069-0.154,0.122-0.19,0.164
		c-0.474,0.118-1.472,0.358-2.338,0.509C244.059,85.654,244.521,85.179,244.974,84.693 M177.38,104.923
		c-0.015-0.029-0.026-0.06-0.048-0.085l0.32-0.102C177.573,104.781,177.478,104.843,177.38,104.923 M162.941,116.021
		c0.042-0.004,0.084-0.007,0.127-0.011c0.006,0.043,0.011,0.089,0.023,0.12L162.941,116.021z M162.792,117.054l-0.206-0.157
		c0,0-0.27,0.896-0.071,1.264l-0.266-0.191c0,0-0.169,0.567-0.061,0.962l-0.118-0.094c0,0-0.33,1.797-0.039,2.981
		c0,0-0.006,1.99,0.391,2.728c0,0,0.299,1.005,0.32,1.216l0.379,1.312c0,0,0.498,1.281,0.244,1.725
		c-0.06,0.104-0.091,0.177-0.105,0.231c-0.733,0.583-3.065,2.397-3.283,2.071l0.04,0.121c-0.299-0.162-0.6-0.318-0.897-0.484
		c-1.45-0.798-2.871-1.644-4.262-2.489c-0.694-0.422-1.375-0.858-2.051-1.28c-0.667-0.437-1.332-0.858-1.976-1.289
		c-1.291-0.86-2.528-1.703-3.684-2.528c-1.161-0.818-2.242-1.614-3.234-2.354c-1.87-1.404-3.407-2.625-4.511-3.524
		c4.799-0.043,9.638-0.207,14.499-0.525c2.962-0.19,5.932-0.43,8.906-0.713C162.758,116.252,162.654,116.809,162.792,117.054
		 M145.13,113.217l0.815,0.563c-0.323,0.008-0.646,0.021-0.968,0.029L145.13,113.217z M148.75,72.857
		c0.101-0.032,0.201-0.064,0.297-0.095c0.012,0.006,0.024,0.011,0.036,0.016c-0.136,0.126-0.264,0.263-0.373,0.412L148.75,72.857z
		 M70.465,110.062l-0.486-0.688c0,0-1.087,1.368-1.149,1.887l-0.195-0.388c0,0-0.74,0.826-0.726,1.294l-0.146-0.311
		c0,0-0.868,0.892-0.859,1.448l-0.196-0.386c0,0-0.548,0.565-0.661,1.1l-0.081-0.184c0,0-1.491,1.923-1.871,3.505
		c0,0-1.225,2.35-1.206,3.464c0,0-0.264,1.371-0.367,1.635l-0.353,1.781c0,0-0.195,1.823-0.769,2.191
		c-0.134,0.085-0.214,0.152-0.265,0.208c-1.233,0.241-5.092,0.959-5.15,0.442l-0.028,0.167c-0.254-0.375-0.515-0.745-0.764-1.124
		l-0.909-1.378c-0.295-0.463-0.591-0.927-0.885-1.39c-0.595-0.919-1.155-1.861-1.723-2.782c-0.564-0.926-1.102-1.856-1.643-2.77
		c-0.523-0.926-1.052-1.831-1.549-2.735c-1-1.804-1.948-3.561-2.81-5.243c-0.872-1.679-1.664-3.282-2.385-4.765
		c-1.18-2.447-2.146-4.572-2.875-6.231c4.758,1.919,9.892,3.82,15.376,5.623c4.837,1.589,9.954,3.092,15.3,4.479
		C70.881,109.174,70.632,109.56,70.465,110.062 M41.595,93.918c0.5,0.347,1.176,0.842,1.46,1.168c0,0,0.557,0.59,1.03,1.137
		c-1.724-0.675-3.404-1.354-5.031-2.033C39.947,94.109,40.863,94.017,41.595,93.918 M256.285,65.592
		c0.29-0.353,0.702-0.83,0.963-1.023c0,0,1.106-0.885,1.501-1.093l0.758-0.803c-0.131,0.351-0.293,0.802-0.521,1.331
		c-0.316,0.68-0.65,1.528-1.144,2.448c-0.412,0.85-0.938,1.773-1.511,2.764C256.339,68.257,256.342,66.666,256.285,65.592
		 M300.643,65.492c0.57-0.199,1.362-0.451,1.79-0.489c0,0,0.759-0.097,1.46-0.158c-0.71,0.552-1.411,1.103-2.096,1.652
		c-1.166,0.929-2.29,1.85-3.374,2.753C299.096,68.164,300.038,66.61,300.643,65.492 M327.109,50.46
		c0.897-0.498,1.787-0.962,2.647-1.426c0.87-0.444,1.727-0.858,2.55-1.268c0.019-0.008,0.035-0.016,0.055-0.025
		c-0.119,0.254-0.413,0.875-0.51,1.013l-0.579,1.234c0,0-0.474,1.293-0.956,1.458c-0.112,0.038-0.182,0.072-0.229,0.102
		c-0.925-0.045-3.835-0.217-3.832-0.598C326.541,50.787,326.828,50.623,327.109,50.46 M392.045,61.564l0.08-0.368
		c0,0-0.613-0.029-0.89-0.354c0,0-1.013-0.517-1.427-0.406l0.062-0.383c0,0-1.017-0.375-1.316-0.4l0.058-0.475
		c0,0-0.833-0.422-1.259-0.231l0.203-0.44c0,0-0.592-0.332-1.029-0.328l0.028-0.442c0,0-0.864-0.42-1.337-0.24l0.054-0.507
		c0,0-0.589-0.505-1.007-0.252c0,0,0.144-0.373,0.043-0.46c0,0-0.515-0.147-0.826,0.081l0.032-0.411c0,0-0.653-0.12-0.904,0.071
		l0.048-0.366c0,0-0.251-0.011-0.632,0.129l0.069-0.319c0,0-0.095-0.197-0.594,0.015l0.063-0.383c0,0-0.353-0.27-0.79,0.143
		l0.046-0.429c0,0-0.536-0.225-0.977,0.155l0.002-0.377c0,0-0.669-0.309-1.159,0.233l-0.081-0.45c0,0-0.682,0.149-0.953,0.469
		l0.185-0.456c0,0-0.506,0.151-0.678,0.384l-0.014-0.389c0,0-0.394-0.017-0.751,0.434l-0.048-0.42c0,0-0.385-0.095-0.855,0.524
		l-0.106-0.385c0,0-0.661,0.193-0.973,0.627l0.056-0.508c0,0-0.744,0.123-1.038,0.602l-0.056-0.514c0,0-0.396-0.08-0.835,0.568
		l-0.248-0.389c0,0-0.422,0.221-0.713,0.733l-0.189-0.425c0,0-0.736,0.625-0.825,0.898l-0.064-0.232c0,0-0.489,0.37-0.534,0.625
		l-0.046-0.184c0,0-0.563,0.39-0.621,0.693l-0.064-0.231c0,0-0.357,0.248-0.478,0.526l-0.022-0.109c0,0-1.016,0.882-1.394,1.699
		c0,0-0.916,1.142-1.025,1.747c0,0-0.289,0.715-0.374,0.848l-0.384,0.927c0,0-0.123,0.391-0.303,0.711
		c-0.364,0.053-0.733,0.106-1.109,0.16c-0.497,0.073-1.015,0.152-1.53,0.23c-0.42-0.047-0.725-0.118-0.716-0.226l-0.132,0.355
		c-4.846,0.749-10.488,1.738-16.791,3.054c-4.731,0.973-9.833,2.133-15.251,3.439c-0.004,0.001-0.007,0.003-0.012,0.003
		c-3.014,0.727-6.123,1.498-9.327,2.31c-8.969,2.276-18.646,4.884-28.853,7.748c-0.901,0.256-1.812,0.516-2.722,0.776
		c0.609-0.623,1.312-1.335,2.112-2.127c0.979-0.978,2.101-2.063,3.332-3.239c1.234-1.174,2.583-2.434,4.03-3.744
		c1.446-1.311,2.987-2.679,4.605-4.062c1.393-1.2,2.851-2.409,4.342-3.621l2.328-0.227l0.572-0.085l-0.314-0.208
		c0,0,2.069-0.157,2.311-0.488l-0.223-0.29l1.793-0.469l-0.38-0.263c0,0,0.979-0.056,1.615-0.479l-0.327-0.331l1.528-0.477
		l-0.348-0.281c0,0,1.451-0.268,1.852-1.107l-0.309-0.385l1.724-1.006l-0.486-0.39l1.778-1.075l-0.629-0.415l1.403-0.945
		c0,0-0.476-0.177-0.688-0.167c-0.215,0.011,1.271-0.844,1.271-0.844s-0.567,0.027-0.84-0.022c1.183-0.764,2.364-1.508,3.528-2.211
		c0.62-0.374,1.237-0.727,1.851-1.078l-0.205,0.476c0,0,2.774,0.504,4.39,0.679c0.302,0.344,0.705,0.827,0.853,1.116
		c0,0,0.696,1.233,0.837,1.656l1.018,1.331l0.9,1.72l0.226,0.378l0.055-0.281c0,0,0.7,1.407,1.002,1.482l0.141-0.239l0.841,1.124
		l0.075-0.343c0,0,0.319,0.672,0.796,0.997l0.141-0.324l0.771,0.936l0.098-0.324c0,0,0.603,0.941,1.306,0.982l0.181-0.326
		l1.197,0.921L341,62.465l1.262,0.941l0.111-0.56l1.063,0.715c0,0-0.013-0.384-0.08-0.531c-0.069-0.147,0.955,0.652,0.955,0.652
		s-0.207-0.441-0.23-0.631c-0.027-0.192,0.972,0.501,0.972,0.501l0.241-0.433l1.271,0.535l-0.052-0.297l0.823,0.527
		c0,0,0.26-0.584,0.062-0.768l1.293,0.598c0,0,0.156-0.559,0.001-0.703l1.082,0.604c0,0,0.217-0.582,0.129-0.707
		c-0.091-0.125,1.012,0.416,1.012,0.416s0.077-0.258-0.011-0.383c-0.09-0.126,1.382,0.062,1.382,0.062s0.037-0.214-0.118-0.442
		l0.751,0.251c0,0-0.055-0.424-0.25-0.609l1.221,0.324c0,0-0.041-0.66-0.175-0.868l1.237,0.13c0,0,0.132-0.537-0.106-0.764
		c0,0,1.573,0.036,1.59-0.156c0,0,0.092-0.45-0.086-0.701l1.209-0.145c0,0,0.284-0.433,0.043-0.662l1.1-0.204
		c0,0,0.201-0.432,0.046-0.62l1.12-0.313c0,0-0.059-0.51-0.192-0.632c-0.13-0.124,1.356-0.214,1.356-0.214s0.085-0.706-0.022-0.808
		l1.488-0.668c0,0-0.072-0.23-0.226-0.418l1.492-0.663c0,0,0.1-0.196-0.102-0.466l0.507-0.147c0,0-0.067-0.146-0.177-0.247
		l2.386-0.609c0,0,0.107-0.025,0.033-0.344c0,0,1.103-0.118,1.221-0.421c0,0,1.917-0.594,2.867-0.069c0,0-2.109-1.617-3.227-2.007
		l0.132-0.496c0,0-0.83-0.079-1.185-0.535c0,0-1.343-0.769-1.911-0.646l0.112-0.513c0,0-1.358-0.575-1.764-0.628l0.11-0.642
		c0,0-1.105-0.624-1.693-0.393l0.301-0.587c0,0-0.778-0.486-1.374-0.508l0.067-0.6c0,0-1.148-0.624-1.799-0.411l0.105-0.686
		c0,0-0.766-0.722-1.35-0.405c0,0,0.218-0.497,0.086-0.62c0,0-0.688-0.234-1.125,0.057l0.069-0.557c0,0-0.878-0.207-1.232,0.038
		l0.089-0.492c0,0-0.339-0.033-0.865,0.133l0.114-0.43c0,0-0.115-0.273-0.808-0.014l0.111-0.517c0,0-0.134-0.108-0.35-0.131
		c-0.043-0.045-0.092-0.086-0.146-0.097c-0.15-0.03,1.045-0.911,1.045-0.911s-0.122-0.181-0.394-0.237l0.718-0.337
		c0,0-0.333-0.27-0.603-0.269l1.107-0.608c0,0-0.485-0.448-0.728-0.506l0.984-0.762c0,0-0.273-0.48-0.606-0.478
		c0,0,1.164-1.062,1.043-1.212c0,0-0.244-0.39-0.545-0.448l0.774-0.94c0,0-0.095-0.51-0.428-0.508l0.655-0.907
		c0,0-0.155-0.451-0.396-0.48l0.592-0.998c0,0-0.394-0.33-0.575-0.328c-0.18,0.001,0.833-1.09,0.833-1.09s-0.426-0.569-0.576-0.569
		l0.615-1.511c0,0-0.21-0.118-0.451-0.147l0.62-1.511c0,0-0.062-0.21-0.394-0.268l0.266-0.455c0,0-0.151-0.058-0.301-0.055
		l1.304-2.09c0,0,0.061-0.091-0.214-0.268c0,0,0.715-0.849,0.592-1.15c0,0,0.976-1.754,2.026-2.031c0,0-2.645,0.288-3.722,0.777
		l-0.245-0.448c0,0-0.655,0.515-1.229,0.43c0,0-1.5,0.372-1.826,0.857l-0.273-0.451c0,0-1.378,0.523-1.707,0.766l-0.366-0.54
		c0,0-1.231,0.31-1.495,0.883l-0.187-0.63c0,0-0.9,0.187-1.347,0.582l-0.366-0.479c0,0-1.26,0.339-1.585,0.946l-0.396-0.571
		c0,0-1.053,0.009-1.256,0.641c0,0-0.187-0.51-0.366-0.509c0,0-0.657,0.307-0.775,0.819l-0.334-0.45c0,0-0.776,0.458-0.863,0.879
		l-0.276-0.418c0,0-0.267,0.211-0.534,0.694l-0.214-0.388c0,0-0.271-0.119-0.595,0.545l-0.275-0.45c0,0-0.602,0.036-0.685,0.85
		l-0.334-0.48c0,0-0.75,0.247-0.863,1.03l-0.335-0.388c0,0-0.959,0.279-0.979,1.273l-0.483-0.389c0,0-0.565,0.757-0.562,1.329
		l-0.216-0.632c0,0-0.385,0.605-0.352,0.997l-0.364-0.388c0,0-0.417,0.333-0.38,1.116l-0.425-0.389c0,0-0.479,0.245-0.409,1.3
		l-0.453-0.299c0,0-0.505,0.787-0.439,1.51l-0.395-0.57c0,0-0.654,0.788-0.527,1.54l-0.515-0.476c0,0-0.48,0.273-0.35,1.325
		l-0.604-0.176c0,0-0.235,0.604-0.077,1.387l-0.572-0.268c0,0-0.199,1.298-0.046,1.658l-0.272-0.18c0,0-0.173,0.815,0.009,1.115
		l-0.211-0.149c0,0-0.231,0.906-0.018,1.266l-0.274-0.18c0,0-0.144,0.574-0.018,0.964l-0.123-0.089c0,0-0.254,1.809,0.086,2.982
		c0,0,0.078,1.988,0.506,2.707c0,0,0.34,0.991,0.371,1.201l0.434,1.294c0,0,0.552,1.261,0.316,1.713
		c-0.056,0.105-0.082,0.179-0.096,0.233c-0.705,0.612-2.961,2.528-3.192,2.212l0.187,0.499c0,0,2.353-1.552,3.643-2.54
		c0.439,0.038,1.035,0.106,1.352,0.207c-0.821,0.373-1.672,0.749-2.54,1.155c-0.88,0.437-1.792,0.873-2.712,1.343
		c-0.91,0.488-1.85,0.968-2.788,1.49c-0.812,0.453-1.635,0.926-2.459,1.407l1.256-1.257l-0.39-0.083l1.056-0.746
		c0,0-0.587-0.608-0.91-0.458l1.375-1.285c0,0-0.605-0.466-0.858-0.351l1.277-1.022c0,0-0.604-0.554-0.802-0.51
		c-0.196,0.049,1.014-1.029,1.014-1.029s-0.278-0.224-0.476-0.177c-0.197,0.045,0.767-1.664,0.767-1.664s-0.244-0.15-0.602-0.072
		l0.681-0.795c0,0-0.545-0.143-0.87,0.004l1.006-1.332c0,0-0.826-0.278-1.15-0.217l0.777-1.45c0,0-0.59-0.431-0.989-0.249
		c0,0,0.826-1.908,0.6-2.024c0,0-0.503-0.337-0.899-0.245l0.425-1.549c0,0-0.39-0.564-0.788-0.383l0.297-1.448
		c0,0-0.428-0.46-0.736-0.362l0.176-1.526c0,0-0.654-0.183-0.869-0.083c-0.217,0.098,0.414-1.764,0.414-1.764
		s-0.822-0.456-1.001-0.373l-0.074-2.154c0,0-0.319-0.029-0.626,0.068l-0.07-2.155c0,0-0.188-0.22-0.618-0.111l0.075-0.692
		c0,0-0.214,0.011-0.395,0.095l0.445-3.222c0,0,0.021-0.14-0.404-0.21c0,0,0.4-1.406,0.091-1.704c0,0,0.229-2.641,1.343-3.543
		c0,0-3.027,1.778-4.062,2.949l-0.54-0.408c0,0-0.511,0.978-1.245,1.182c0,0-1.607,1.258-1.739,2.019l-0.574-0.396
		c0,0-1.377,1.375-1.644,1.847l-0.731-0.453c0,0-1.314,1.038-1.323,1.873l-0.565-0.659c0,0-0.985,0.711-1.309,1.429l-0.7-0.382
		c0,0-1.335,1.092-1.399,1.997l-0.785-0.473c0,0-1.264,0.579-1.168,1.452c0,0-0.5-0.515-0.715-0.416c0,0-0.628,0.725-0.492,1.406
		l-0.646-0.362c0,0-0.69,0.972-0.565,1.526l-0.559-0.356c0,0-0.209,0.401-0.268,1.127l-0.469-0.352c0,0-0.392,0.003-0.421,0.979
		l-0.576-0.392c0,0-0.706,0.366-0.364,1.391l-0.663-0.397c0,0-0.771,0.702-0.483,1.708l-0.613-0.288c0,0-1.004,0.853-0.494,2.064
		l-0.792-0.206c0,0-0.271,1.216,0.045,1.903l-0.604-0.646c0,0-0.138,0.94,0.114,1.394l-0.648-0.272c0,0-0.322,0.628,0.146,1.552
		l-0.724-0.24c0,0-0.442,0.553,0.212,1.787l-0.708-0.116c0,0-0.184,1.221,0.287,2.056l-0.784-0.473c0,0-0.363,1.304,0.196,2.141
		l-0.879-0.296c0,0-0.43,0.589,0.295,1.789l-0.818,0.11c0,0,0.042,0.857,0.653,1.715l-0.835-0.013c0,0,0.462,1.669,0.843,2.021
		l-0.427-0.069c0,0,0.232,1.077,0.614,1.339l-0.335-0.064c0,0,0.209,1.215,0.662,1.532l-0.427-0.068c0,0,0.136,0.77,0.498,1.173
		l-0.195-0.041c0,0,0.67,2.316,1.715,3.545c0,0,1.169,2.353,2.073,2.99c0,0,0.944,1.011,1.096,1.248l1.222,1.323
		c0,0,1.347,1.22,1.309,1.894c-0.01,0.158-0.003,0.262,0.011,0.335c-0.521,1.12-2.205,4.643-2.653,4.386l0.17,0.172
		c-0.095,0.08-0.191,0.161-0.285,0.24c-1.504,1.272-2.907,2.495-4.194,3.636c-1.283,1.144-2.451,2.201-3.474,3.153
		c-1.027,0.949-1.91,1.79-2.637,2.484c-0.721,0.703-1.287,1.256-1.673,1.633c-0.384,0.384-0.589,0.59-0.589,0.59
		c-0.117,0.116-0.203,0.251-0.264,0.393c-0.827,0.239-1.66,0.48-2.493,0.722c-0.085-0.079-0.131-0.122-0.131-0.122l-0.008-0.007
		c-0.229-0.212-0.584-0.199-0.796,0.029c-0.107,0.117-0.155,0.266-0.147,0.413c-1.98,0.575-3.978,1.159-5.989,1.75l0.908-0.469
		c0,0,0.067-0.471-0.137-0.606l0.981-0.623c0,0-0.203-0.471-0.364-0.551c-0.161-0.081,1.235-0.595,1.235-0.595
		s-0.123-0.7-0.256-0.768l1.233-1.069c0,0-0.136-0.199-0.337-0.335l1.235-1.067c0,0,0.039-0.217-0.229-0.416l0.441-0.285
		c0,0-0.106-0.122-0.241-0.188l2.109-1.271c0,0,0.094-0.055-0.07-0.339c0,0,1.022-0.433,1.05-0.756c0,0,1.664-1.123,2.725-0.895
		c0,0-2.487-0.939-3.67-0.99l-0.016-0.512c0,0-0.818,0.164-1.29-0.17c0,0-1.506-0.349-2.017-0.065l-0.04-0.525
		c0,0-1.467-0.157-1.87-0.091l-0.08-0.646c0,0-1.237-0.281-1.734,0.112l0.12-0.648c0,0-0.889-0.241-1.463-0.09l-0.111-0.593
		c0,0-1.277-0.267-1.841,0.125l-0.096-0.687c0,0-0.941-0.469-1.409,0.004c0,0,0.064-0.54-0.097-0.62c0,0-0.726-0.025-1.061,0.379
		l-0.095-0.552c0,0-0.902,0.056-1.167,0.393l-0.06-0.498c0,0-0.332,0.068-0.79,0.378l-0.013-0.443c0,0-0.19-0.229-0.778,0.218
		l-0.043-0.527c0,0-0.552-0.241-0.995,0.447l-0.08-0.578c0,0-0.78-0.121-1.235,0.527l-0.122-0.499c0,0-0.982-0.185-1.449,0.692
		l-0.259-0.566c0,0-0.845,0.42-1.1,0.933l0.095-0.662c0,0-0.619,0.365-0.768,0.728l-0.147-0.51c0,0-0.525,0.109-0.846,0.823
		l-0.202-0.539c0,0-0.537,0.002-0.951,0.975l-0.271-0.472c0,0-0.806,0.473-1.074,1.146l-0.086-0.623
		c0.13-0.22,0.255-0.435,0.38-0.649l0.146,0.037c0,0,0.002-0.113,0.004-0.294c0.017-0.029,0.036-0.06,0.053-0.09
		c0.613-1.133,1.171-2.175,1.601-3.131c0.468-0.937,0.776-1.798,1.072-2.488c0.226-0.568,0.38-1.043,0.504-1.406l0.345-0.366
		l1.551-1.169l0.337-0.28l-0.286-0.011c0,0,1.275-0.917,1.302-1.226l-0.259-0.101l0.973-1.009l-0.349-0.021
		c0,0,0.611-0.422,0.854-0.947l-0.34-0.084l0.798-0.913l-0.335-0.042c0,0,0.831-0.747,0.758-1.448l-0.351-0.126l0.717-1.33
		l-0.467-0.061l0.725-1.396l-0.57-0.021l0.534-1.163c0,0-0.377,0.072-0.512,0.164c-0.133,0.091,0.491-1.049,0.491-1.049
		s-0.404,0.275-0.59,0.331c-0.183,0.058,0.341-1.04,0.341-1.04l-0.468-0.168l0.323-1.342l-0.283,0.099l0.389-0.899
		c0,0-0.619-0.161-0.77,0.065l0.382-1.374c0,0-0.574-0.062-0.693,0.112l0.421-1.165c0,0-0.608-0.12-0.718-0.013
		c-0.109,0.11,0.248-1.065,0.248-1.065s-0.269-0.034-0.377,0.073c-0.109,0.108-0.161-1.377-0.161-1.377s-0.217,0-0.417,0.191
		l0.126-0.784c0,0-0.409,0.123-0.561,0.346l0.123-1.257c0,0-0.643,0.147-0.827,0.313l-0.07-1.242c0,0-0.553-0.047-0.738,0.228
		c0,0-0.217-1.559-0.41-1.544c0,0-0.459-0.019-0.679,0.197l-0.336-1.17c0,0-0.475-0.21-0.66,0.065l-0.38-1.054
		c0,0-0.458-0.128-0.619,0.056l-0.489-1.055c0,0-0.494,0.14-0.592,0.289c-0.104,0.149-0.43-1.302-0.43-1.302
		s-0.711,0.03-0.794,0.153l-0.899-1.362c0,0-0.217,0.107-0.376,0.29l-0.896-1.365c0,0-0.209-0.068-0.444,0.173l-0.224-0.478
		c0,0-0.135,0.093-0.218,0.217l-0.985-2.258c0,0-0.04-0.099-0.344,0.025c0,0-0.294-1.069-0.612-1.137c0,0-0.895-1.798-0.531-2.821
		c0,0-1.256,2.345-1.461,3.509l-0.509-0.051c0,0,0.055,0.834-0.341,1.256c0,0-0.54,1.446-0.326,1.99l-0.525-0.028
		c0,0-0.348,1.432-0.335,1.841l-0.652-0.004c0,0-0.439,1.189-0.117,1.733l-0.626-0.203c0,0-0.354,0.848-0.279,1.44l-0.604,0.031
		c0,0-0.432,1.231-0.116,1.841l-0.693,0.004c0,0-0.589,0.873-0.184,1.399c0,0-0.523-0.135-0.626,0.015c0,0-0.118,0.715,0.238,1.101
		l-0.56,0.022c0,0-0.063,0.899,0.236,1.209l-0.502-0.01c0,0,0.023,0.341,0.271,0.834l-0.442-0.043c0,0-0.251,0.156,0.114,0.8
		l-0.526-0.028c0,0-0.311,0.516,0.312,1.043l-0.584,0.006c0,0-0.221,0.758,0.36,1.295l-0.509,0.055c0,0-0.312,0.95,0.493,1.529
		l-0.594,0.179c0,0,0.306,0.894,0.78,1.213l-0.644-0.179c0,0,0.282,0.661,0.623,0.855l-0.525,0.08c0,0,0.039,0.534,0.704,0.946
		l-0.559,0.13c0,0-0.07,0.533,0.84,1.072l-0.503,0.205c0,0,0.363,0.861,0.997,1.214l-0.693,0.005c0,0,0.28,0.985,0.973,1.306
		l-0.687,0.155c0,0-0.044,0.551,0.897,1.038l-0.486,0.397c0,0,0.365,0.537,1.099,0.849l-0.545,0.321c0,0,0.959,0.898,1.344,0.976
		l-0.303,0.121c0,0,0.574,0.605,0.923,0.623l-0.239,0.09c0,0,0.612,0.704,1.032,0.731l-0.303,0.124c0,0,0.391,0.444,0.782,0.562
		l-0.141,0.049c0,0,1.348,1.233,2.508,1.614c0,0,1.683,1.061,2.519,1.116c0,0,1.01,0.281,1.201,0.375l1.312,0.371
		c0,0,1.353,0.258,1.593,0.71c0.055,0.104,0.1,0.167,0.138,0.209c0.106,0.928,0.409,3.871,0.018,3.883l0.1,0.025
		c-0.19,0.303-0.383,0.612-0.581,0.929c-0.272,0.193-0.582,0.483-0.701,0.862l-0.243-0.659c0,0-0.549,0.026-0.912,1.025l-0.457-0.43
		c0,0-0.482,0.431-0.696,1.201l-0.391-0.499c0,0-0.764,1.067-0.791,1.459l-0.159-0.283c0,0-0.524,0.647-0.497,0.997l-0.121-0.227
		c0,0-0.618,0.701-0.589,1.118l-0.163-0.283c0,0-0.389,0.446-0.455,0.852l-0.067-0.135c0,0-1.045,1.498-1.271,2.697
		c0,0-0.83,1.809-0.774,2.644c0,0-0.012,0.08-0.029,0.197c-0.854,0.92-1.722,1.836-2.621,2.729c-0.711,0.719-1.437,1.42-2.167,2.112
		c-0.068-0.019-0.119-0.044-0.127-0.087l-0.025,0.231c-0.452,0.427-0.905,0.855-1.357,1.274c-0.616,0.573-1.241,1.125-1.853,1.678
		c-0.622,0.54-1.229,1.083-1.839,1.601c-1.22,1.039-2.407,2.031-3.555,2.947c-1.142,0.922-2.238,1.771-3.256,2.549
		c-1.037,0.789-1.995,1.496-2.848,2.115c-0.021-0.243-0.048-0.551-0.086-0.917c-0.102-0.969-0.268-2.348-0.534-3.988
		c-0.264-1.642-0.628-3.548-1.111-5.567c-0.235-1.011-0.513-2.048-0.806-3.098c-0.303-1.046-0.624-2.105-0.981-3.152
		c-0.177-0.524-0.356-1.048-0.551-1.563c-0.185-0.519-0.384-1.03-0.587-1.535c-0.298-0.756-0.616-1.488-0.938-2.205
		c0.35-0.615,1.408-2.489,1.993-3.697c0.426-0.169,1.017-0.387,1.337-0.43c0,0,1.397-0.241,1.842-0.231l1.597-0.511l1.921-0.273
		l0.431-0.084l-0.243-0.147c0,0,1.559-0.187,1.729-0.446l-0.175-0.212l1.339-0.416l-0.297-0.185c0,0,0.74-0.075,1.206-0.416
		l-0.258-0.24l1.139-0.412l-0.271-0.2c0,0,1.088-0.252,1.363-0.9l-0.247-0.281l1.27-0.818l-0.379-0.279l1.309-0.871l-0.49-0.295
		l1.03-0.761c0,0-0.365-0.119-0.526-0.103c-0.16,0.016,0.935-0.681,0.935-0.681s-0.484,0.046-0.672,0.005
		c-0.189-0.037,0.798-0.747,0.798-0.747l-0.327-0.372l0.931-1.018l-0.297-0.052l0.774-0.599c0,0-0.463-0.44-0.703-0.316l0.997-1.018
		c0,0-0.475-0.333-0.662-0.236l0.933-0.817c0,0-0.476-0.399-0.623-0.359c-0.147,0.044,0.731-0.812,0.731-0.812
		s-0.217-0.16-0.364-0.118c-0.149,0.042,0.523-1.283,0.523-1.283s-0.19-0.106-0.457-0.035l0.489-0.625c0,0-0.419-0.09-0.66,0.032
		l0.716-1.041c0,0-0.633-0.184-0.874-0.127l0.536-1.121c0,0-0.46-0.306-0.755-0.155c0,0,0.562-1.472,0.387-1.551
		c0,0-0.395-0.238-0.689-0.157l0.271-1.185c0,0-0.314-0.414-0.609-0.263l0.176-1.106c0,0-0.34-0.334-0.568-0.25l0.081-1.159
		c0,0-0.499-0.116-0.66-0.034c-0.159,0.081,0.255-1.349,0.255-1.349s-0.637-0.316-0.77-0.248l-0.129-1.628
		c0,0-0.241-0.009-0.47,0.072l-0.125-1.627c0,0-0.149-0.161-0.471-0.062l0.033-0.526c0,0-0.163,0.015-0.294,0.083l0.227-2.451
		c0,0,0.013-0.108-0.312-0.145c0,0,0.257-1.079,0.013-1.292c0,0,0.085-2.007,0.896-2.725c0,0-2.23,1.445-2.973,2.366l-0.424-0.291
		c0,0-0.353,0.756-0.903,0.937c0,0-1.173,1.005-1.247,1.583l-0.447-0.279c0,0-0.997,1.087-1.183,1.451l-0.567-0.318
		c0,0-0.96,0.83-0.939,1.46l-0.45-0.479c0,0-0.721,0.572-0.94,1.125l-0.543-0.264c0,0-0.974,0.869-0.991,1.554l-0.611-0.329
		c0,0-0.936,0.478-0.834,1.136c0,0-0.395-0.372-0.557-0.29c0,0-0.449,0.569-0.323,1.08l-0.5-0.254c0,0-0.491,0.76-0.378,1.174
		l-0.435-0.249c0,0-0.145,0.308-0.165,0.861l-0.366-0.251c0,0-0.296,0.014-0.285,0.754l-0.449-0.279c0,0-0.521,0.302-0.23,1.066
		l-0.515-0.279c0,0-0.56,0.558-0.309,1.309l-0.472-0.199c0,0-0.732,0.681-0.306,1.579l-0.607-0.13c0,0-0.164,0.931,0.098,1.439
		l-0.478-0.468c0,0-0.073,0.715,0.133,1.049l-0.499-0.183c0,0-0.225,0.486,0.161,1.169l-0.555-0.157c0,0-0.317,0.434,0.219,1.344
		l-0.538-0.063c0,0-0.1,0.93,0.284,1.545l-0.608-0.332c0,0-0.23,0.998,0.22,1.614l-0.675-0.195c0,0-0.305,0.458,0.284,1.342
		l-0.617,0.113c0,0,0.061,0.645,0.552,1.274l-0.632,0.018c0,0,0.405,1.248,0.704,1.503l-0.323-0.039c0,0,0.211,0.805,0.508,0.992
		l-0.254-0.039c0,0,0.198,0.913,0.55,1.139l-0.323-0.038c0,0,0.128,0.578,0.415,0.871l-0.149-0.025c0,0,0.585,1.731,1.417,2.625
		c0,0,0.962,1.741,1.666,2.192c0,0,0.749,0.734,0.872,0.908l0.967,0.961c0,0,1.06,0.878,1.053,1.388
		c-0.002,0.119,0.007,0.198,0.02,0.252c-0.278,0.675-1.044,2.482-1.532,3.157c-0.049-0.106-0.096-0.218-0.145-0.323
		c-0.44-0.939-0.891-1.833-1.347-2.667c-0.217-0.422-0.456-0.817-0.679-1.203c-0.218-0.389-0.443-0.757-0.668-1.106
		c-0.429-0.708-0.867-1.328-1.244-1.883c-0.392-0.547-0.747-1.012-1.035-1.399c-0.605-0.748-0.955-1.175-0.955-1.175
		s0.332,0.439,0.911,1.208c0.275,0.397,0.611,0.873,0.982,1.432c0.354,0.566,0.77,1.2,1.171,1.92c0.21,0.354,0.42,0.727,0.624,1.122
		c0.207,0.393,0.43,0.794,0.632,1.22c0.421,0.844,0.836,1.748,1.238,2.695c0.399,0.946,0.79,1.935,1.149,2.952
		c0.184,0.508,0.361,1.021,0.526,1.542c0.175,0.517,0.333,1.041,0.49,1.566c0.315,1.05,0.597,2.109,0.858,3.155
		c0.25,1.047,0.487,2.081,0.686,3.089c0.404,2.012,0.695,3.906,0.896,5.533c0.205,1.627,0.319,2.987,0.384,3.939
		c0.063,0.954,0.073,1.485,0.073,1.485c0.001,0.063,0.021,0.121,0.04,0.179c-0.347,0.247-0.67,0.474-0.962,0.676
		c-0.077,0.055-0.145,0.102-0.218,0.151c-1.284,0.393-2.57,0.784-3.859,1.177c-0.724,0.221-1.45,0.44-2.177,0.661l-2.193,0.619
		c-1.464,0.409-2.926,0.839-4.398,1.231c-1.475,0.384-2.952,0.768-4.43,1.152l-1.109,0.289l-1.116,0.267l-2.231,0.53
		c-1.487,0.357-2.976,0.719-4.476,1.029l-4.495,0.967l-4.144,0.81l0.267-0.415c0,0-0.148-0.067-0.298-0.072l1.392-2.03
		c0,0,0.063-0.089-0.203-0.278c0,0,0.749-0.817,0.638-1.123c0,0,1.051-1.712,2.112-1.945c0,0-2.655,0.178-3.75,0.622l-0.228-0.46
		c0,0-0.676,0.489-1.245,0.379c0,0-1.513,0.308-1.86,0.777l-0.255-0.46c0,0-1.399,0.465-1.738,0.692l-0.343-0.556
		c0,0-1.242,0.258-1.531,0.821l-0.16-0.638c0,0-0.907,0.147-1.37,0.524l-0.345-0.495c0,0-1.272,0.287-1.622,0.877l-0.372-0.585
		c0,0-1.053-0.037-1.283,0.587c0,0-0.136-0.425-0.297-0.506l1.49-0.477c0,0-0.14-0.929-0.389-1.144
		c-0.248-0.219,2.466-0.482,2.466-0.482s0.107-1.297-0.101-1.478l2.683-1.32c0,0-0.147-0.418-0.441-0.749l2.682-1.315
		c0,0,0.171-0.365-0.213-0.845l0.917-0.299c0,0-0.135-0.266-0.341-0.445l4.323-1.273c0,0,0.19-0.051,0.036-0.629
		c0,0,2.006-0.292,2.204-0.854c0,0,3.469-1.215,5.245-0.319c0,0-3.973-2.815-6.041-3.455l0.21-0.915c0,0-1.527-0.089-2.204-0.901
		c0,0-2.504-1.316-3.54-1.049l0.17-0.949c0,0-2.521-0.96-3.268-1.028l0.157-1.182c0,0-2.06-1.072-3.121-0.609l0.512-1.09
		c0,0-1.458-0.838-2.55-0.84l0.083-1.1c0,0-2.139-1.066-3.319-0.632l0.149-1.261c0,0-0.22-0.191-0.549-0.389l0.907,0.133
		c0,0-0.006-0.852-0.346-0.967l1.898,0.015c0,0-0.121-0.762-0.385-0.851l1.643,0.138c0,0-0.056-0.825-0.232-0.928
		c-0.177-0.103,1.457-0.051,1.457-0.051s-0.049-0.357-0.225-0.458c-0.176-0.104,1.715-0.685,1.715-0.685s-0.074-0.279-0.389-0.47
		l1.051-0.108c0,0-0.299-0.484-0.639-0.602l1.659-0.276c0,0-0.411-0.777-0.689-0.957l1.574-0.52c0,0-0.133-0.725-0.551-0.869
		c0,0,1.418-0.604,1.768-0.928c0.276,0.328,0.954,1.084,1.403,1.163l-0.298,0.432c0,0,1.041,1.045,1.398,1.246l-0.344,0.554
		c0,0,0.787,0.996,1.42,1.003l-0.499,0.427c0,0,0.539,0.745,1.082,0.99l-0.287,0.53c0,0,0.826,1.011,1.51,1.059l-0.356,0.595
		c0,0,0.438,0.957,1.099,0.884c0,0-0.39,0.378-0.314,0.542c0,0,0.548,0.474,1.065,0.371l-0.274,0.49c0,0,0.735,0.521,1.156,0.427
		l-0.269,0.424c0,0,0.302,0.157,0.853,0.203l-0.268,0.353c0,0,0.004,0.296,0.742,0.32l-0.298,0.435c0,0,0.279,0.534,1.054,0.276
		l-0.299,0.503c0,0,0.532,0.582,1.293,0.364l-0.219,0.464c0,0,0.648,0.761,1.563,0.374l-0.155,0.601c0,0,0.922,0.205,1.44-0.034
		l-0.487,0.456c0,0,0.711,0.104,1.056-0.087l-0.206,0.491c0,0,0.475,0.243,1.174-0.111l-0.18,0.547c0,0,0.42,0.336,1.352-0.159
		l-0.086,0.537c0,0,0.924,0.137,1.556-0.219l-0.357,0.595c0,0,0.986,0.274,1.622-0.151l-0.225,0.666c0,0,0.446,0.325,1.354-0.226
		l0.085,0.623c0,0,0.647-0.033,1.297-0.498l-0.009,0.633c0,0,1.265-0.349,1.529-0.638l-0.052,0.322c0,0,0.815-0.176,1.014-0.465
		l-0.05,0.253c0,0,0.922-0.159,1.161-0.501l-0.051,0.324c0,0,0.584-0.104,0.888-0.378l-0.03,0.147c0,0,1.753-0.509,2.684-1.299
		c0,0,1.782-0.886,2.263-1.57c0,0,0.766-0.716,0.944-0.831l1.003-0.926c0,0,0.925-1.02,1.434-0.989
		c0.119,0.007,0.198,0.001,0.253-0.01c0.851,0.395,3.516,1.667,3.322,2.006l0.38-0.375c0,0-2.38-1.51-3.81-2.281
		c-0.15-0.432-0.342-1.032-0.371-1.355c0,0-0.179-1.406-0.151-1.85l-0.441-1.616l-0.189-1.932l-0.062-0.433l-0.156,0.237
		c0,0-0.121-1.566-0.372-1.749l-0.222,0.167l-0.354-1.357l-0.197,0.289c0,0-0.045-0.742-0.364-1.222l-0.251,0.247l-0.363-1.158
		l-0.211,0.264c0,0-0.204-1.098-0.84-1.402l-0.29,0.234l-0.763-1.305l-0.295,0.368l-0.814-1.346l-0.315,0.476l-0.715-1.061
		c0,0-0.134,0.359-0.126,0.522c0.008,0.161-0.639-0.965-0.639-0.965s0.022,0.487-0.024,0.673c-0.048,0.187-0.713-0.83-0.713-0.83
		l-0.385,0.311l-0.977-0.976l-0.066,0.295l-0.563-0.799c0,0-0.46,0.443-0.346,0.688l-0.974-1.039c0,0-0.354,0.458-0.267,0.65
		l-0.773-0.967c0,0-0.42,0.458-0.386,0.606c0.037,0.151-0.779-0.766-0.779-0.766s-0.169,0.211-0.136,0.36
		c0.035,0.15-1.258-0.578-1.258-0.578s-0.113,0.184-0.056,0.454l-0.601-0.516c0,0-0.109,0.413,0.002,0.659l-1.008-0.76
		c0,0-0.212,0.626-0.166,0.871l-1.098-0.588c0,0-0.325,0.448-0.188,0.748c0,0-1.446-0.625-1.532-0.453c0,0-0.256,0.382-0.187,0.682
		l-1.174-0.322c0,0-0.425,0.294-0.288,0.597l-1.097-0.225c0,0-0.348,0.325-0.275,0.557l-1.154-0.13c0,0-0.138,0.494-0.063,0.656
		c0.075,0.165-1.336-0.311-1.336-0.311s-0.344,0.621-0.281,0.757l-1.633,0.058c0,0-0.02,0.24,0.052,0.473l-1.632,0.053
		c0,0-0.166,0.143-0.083,0.468l-0.524-0.057c0,0,0.009,0.163,0.072,0.3l-1.757-0.242c-0.028-0.194-0.096-0.442-0.265-0.525
		l1.186-0.994c0,0-0.35-0.586-0.578-0.663c-0.226-0.079,1.527-1.003,1.527-1.003s-0.283-0.903-0.473-0.968l1.443-1.625
		c0,0-0.213-0.243-0.504-0.386l1.446-1.623c0,0,0.014-0.293-0.377-0.511l0.537-0.454c0,0-0.165-0.141-0.354-0.205l2.561-2.047
		c0,0,0.115-0.089-0.148-0.434c0,0,1.27-0.75,1.251-1.181c0,0,2-1.773,3.442-1.658c0,0-3.45-0.806-5.018-0.666l-0.112-0.674
		c0,0-1.052,0.359-1.733-0.001c0,0-2.046-0.195-2.671,0.269l-0.145-0.686c0,0-1.963,0.048-2.483,0.207l-0.222-0.841
		c0,0-1.683-0.154-2.269,0.45l0.045-0.875c0,0-1.214-0.162-1.949,0.137l-0.247-0.765c0,0-1.734-0.128-2.41,0.489l-0.245-0.89
		c0,0-1.326-0.457-1.863,0.248c0,0-0.007-0.722-0.235-0.8c0,0-0.961,0.093-1.334,0.687l-0.222-0.714c0,0-1.179,0.231-1.472,0.724
		l-0.162-0.649c0,0-0.431,0.148-0.978,0.638l-0.098-0.583c0,0-0.288-0.269-0.989,0.424l-0.147-0.688c0,0-0.771-0.22-1.234,0.764
		l-0.209-0.75c0,0-1.05-0.022-1.539,0.913l-0.248-0.636c0,0-1.329-0.074-1.794,1.165l-0.437-0.701c0,0-1.044,0.701-1.29,1.421
		l0.008-0.889c0,0-0.753,0.591-0.884,1.097l-0.286-0.648c0,0-0.673,0.235-0.97,1.235l-0.363-0.676c0,0-0.709,0.096-1.087,1.451
		l-0.438-0.576c0,0-0.983,0.766-1.217,1.702l-0.246-0.888c0,0-1.17,0.7-1.343,1.701l-0.437-0.828c0,0-0.722,0.132-1.024,1.514
		l-0.678-0.489c0,0-0.564,0.655-0.711,1.707l-0.602-0.588c0,0-0.822,1.54-0.79,2.063l-0.262-0.347c0,0-0.578,0.948-0.48,1.405
		l-0.199-0.279c0,0-0.695,1.032-0.583,1.579l-0.263-0.345c0,0-0.437,0.657-0.452,1.202l-0.114-0.166c0,0-1.118,2.16-1.208,3.784
		c0,0-0.781,2.533-0.561,3.625c0,0-0.012,1.397-0.065,1.675l-0.027,1.816c0,0,0.13,1.763-0.337,2.266
		c-0.428,0.104-1.241,0.359-1.845,0.884c-0.161,0.058-0.326,0.117-0.491,0.174l-0.092-0.931c0,0-0.987-0.208-2.089,1.392
		l-0.611-0.974c0,0-1.056,0.541-1.791,1.803l-0.46-1.063c0,0-1.849,1.534-2.076,2.215l-0.155-0.577c0,0-1.227,0.904-1.341,1.537
		l-0.109-0.459c0,0-1.419,0.956-1.563,1.708l-0.156-0.576c0,0-0.896,0.607-1.2,1.293l-0.058-0.269c0,0-2.546,2.168-3.503,4.187
		c0,0-2.311,2.816-2.6,4.321c0,0-0.74,1.77-0.954,2.096l-0.977,2.295c0,0-0.776,2.398-1.652,2.73
		c-0.202,0.077-0.332,0.146-0.416,0.205c-1.73-0.021-7.119-0.144-7.052-0.854l-0.353,0.913c0,0,5.111,0.734,8.076,0.949
		c0.575,0.607,1.344,1.465,1.634,1.981c0,0,1.357,2.212,1.642,2.976l1.952,2.366l1.764,3.083l0.434,0.675l0.084-0.516
		c0,0,1.375,2.525,1.932,2.645l0.242-0.447l1.614,1.999l0.113-0.632c0,0,0.629,1.208,1.524,1.771l0.232-0.604l1.475,1.66
		l0.155-0.599c0,0,1.167,1.682,2.454,1.708l0.31-0.607l1.923,1.372c-8.918,0.189-17.71-0.086-26.255-0.711
		c-4.696-0.35-9.311-0.836-13.839-1.425l-0.007-0.254c0,0-1.94-0.306-2.481-0.243l-0.064-0.865c0,0-0.597-0.166-1.221-0.19
		c1.405-1.331,3.298-3.174,5.488-5.422c1.166-1.204,2.42-2.515,3.717-3.928c1.305-1.407,2.65-2.918,4.022-4.497
		c0.688-0.786,1.367-1.605,2.067-2.423c0.682-0.832,1.382-1.667,2.068-2.525c0.681-0.861,1.381-1.717,2.052-2.604
		c0.338-0.44,0.677-0.881,1.017-1.323l0.996-1.343c1.332-1.789,2.604-3.622,3.823-5.447c0.615-0.909,1.186-1.837,1.771-2.739
		c0.568-0.913,1.11-1.828,1.651-2.721c0.514-0.91,1.018-1.805,1.511-2.681c0.465-0.893,0.93-1.759,1.363-2.611
		c0.415-0.864,0.817-1.703,1.207-2.515c0.359-0.825,0.706-1.622,1.039-2.388c0.614-1.553,1.172-2.977,1.577-4.271
		c0.391-1.09,0.641-2.082,0.876-2.931l0.34,0.227c0,0,1.325-3.517,1.942-5.59c0.522-0.313,1.251-0.725,1.663-0.849
		c0,0,1.785-0.617,2.372-0.699l1.988-1.015l2.467-0.771l0.547-0.203l-0.352-0.14c0,0,2.009-0.581,2.18-0.957l-0.28-0.243
		l1.674-0.832l-0.431-0.181c0,0,0.958-0.256,1.497-0.806l-0.391-0.259l1.41-0.787l-0.401-0.204c0,0,1.378-0.564,1.599-1.474
		l-0.385-0.316l1.495-1.349l-0.56-0.286l1.535-1.426l-0.707-0.281l1.19-1.22c0,0-0.505-0.078-0.715-0.024
		c-0.208,0.054,1.084-1.096,1.084-1.096s-0.627,0.164-0.883,0.152c-0.258-0.01,0.889-1.154,0.889-1.154l-0.51-0.42l1.005-1.537
		l-0.401-0.004l0.889-0.952c0,0-0.705-0.479-0.992-0.265l1.093-1.552c0,0-0.696-0.336-0.922-0.17l1.052-1.271
		c0,0-0.712-0.424-0.897-0.338c-0.183,0.088,0.787-1.226,0.787-1.226s-0.32-0.164-0.504-0.077c-0.188,0.086,0.413-1.799,0.413-1.799
		s-0.273-0.098-0.61,0.051l0.511-0.925c0,0-0.569-0.029-0.861,0.184l0.719-1.522c0,0-0.872-0.104-1.179,0.022l0.467-1.59
		c0,0-0.672-0.304-1.026-0.042c0,0,0.422-2.055,0.175-2.123c0,0-0.568-0.228-0.939-0.055l0.1-1.618c0,0-0.5-0.477-0.857-0.216
		l-0.005-1.49c0,0-0.518-0.364-0.802-0.207l-0.141-1.54c0,0-0.683-0.047-0.876,0.097c-0.192,0.141,0.046-1.827,0.046-1.827
		s-0.905-0.281-1.064-0.162l-0.519-2.111c0,0-0.319,0.038-0.601,0.195l-0.514-2.113c0,0-0.233-0.179-0.634,0.02l-0.069-0.699
		c0,0-0.208,0.055-0.369,0.173L149.467,5.6c0,0-0.007-0.144-0.442-0.123c0,0,0.108-1.472-0.259-1.701c0,0-0.319-2.655,0.595-3.776
		c0,0-2.624,2.38-3.402,3.749l-0.617-0.291c0,0-0.303,1.069-0.987,1.424c0,0-1.326,1.572-1.299,2.349l-0.648-0.271
		c0,0-1.077,1.642-1.243,2.161l-0.815-0.297c0,0-1.086,1.297-0.923,2.124l-0.694-0.537c0,0-0.825,0.907-0.996,1.681l-0.769-0.231
		c0,0-1.093,1.352-0.969,2.259l-0.873-0.305c0,0-1.128,0.832-0.854,1.674c0,0-0.598-0.406-0.793-0.262c0,0-0.47,0.843-0.194,1.488
		l-0.712-0.224c0,0-0.482,1.101-0.244,1.622l-0.625-0.235c0,0-0.123,0.437-0.032,1.168l-0.535-0.253c0,0-0.385,0.085-0.214,1.056
		l-0.65-0.272c0,0-0.62,0.509-0.074,1.45l-0.735-0.255c0,0-0.616,0.851-0.125,1.784l-0.664-0.158c0,0-0.817,1.051-0.064,2.138
		l-0.824-0.038c0,0-0.018,1.257,0.436,1.869l-0.728-0.512c0,0,0.058,0.955,0.399,1.351l-0.695-0.134c0,0-0.189,0.685,0.462,1.501
		l-0.761-0.088c0,0-0.325,0.639,0.575,1.721l-0.722,0.033c0,0,0.07,1.243,0.707,1.969l-0.872-0.305c0,0-0.089,1.362,0.635,2.074
		l-0.928-0.112c0,0-0.304,0.668,0.661,1.703l-0.788,0.28c0,0,0.218,0.837,1,1.555l-0.827,0.16c0,0,0.8,1.554,1.248,1.826
		l-0.434,0.017c0,0,0.45,1.013,0.881,1.195l-0.342,0.005c0,0,0.455,1.157,0.967,1.378l-0.434,0.02c0,0,0.292,0.731,0.731,1.055
		l-0.201-0.001c0,0,1.14,2.149,2.424,3.147c0,0,1.64,2.083,2.663,2.523c0,0,1.141,0.804,1.34,1.007l1.477,1.055
		c0,0,1.582,0.928,1.681,1.601c0.023,0.157,0.051,0.258,0.08,0.326c-0.213,0.913-0.787,3.265-1.269,4.336
		c0.09-0.354,0.156-0.691,0.225-0.98c0.08-0.368,0.148-0.682,0.203-0.936c0.111-0.507,0.17-0.777,0.17-0.777
		s-0.074,0.267-0.21,0.769c-0.068,0.249-0.153,0.558-0.252,0.921c-0.106,0.361-0.195,0.785-0.361,1.241
		c-0.029,0.083-0.06,0.177-0.089,0.264c-0.046,0.036-0.089,0.052-0.13,0.039l0.095,0.064c-0.283,0.844-0.586,1.834-1.041,2.921
		c-0.468,1.262-1.096,2.647-1.784,4.15c-0.369,0.741-0.754,1.512-1.153,2.31c-0.426,0.784-0.868,1.592-1.322,2.424
		c-0.473,0.82-0.977,1.653-1.481,2.509c-0.533,0.84-1.078,1.698-1.631,2.57c-0.582,0.854-1.163,1.728-1.77,2.601
		c-0.625,0.86-1.234,1.746-1.887,2.611c-0.912,1.218-1.857,2.433-2.819,3.638c-0.373-0.976-1.356-3.512-2.075-5.074
		c0.185-0.58,0.461-1.372,0.689-1.739c0,0,0.935-1.639,1.32-2.09l0.824-2.074l1.345-2.207l0.278-0.515l-0.358,0.129
		c0,0,1.127-1.762,1.006-2.158l-0.368,0.001l0.707-1.729l-0.442,0.149c0,0,0.549-0.824,0.592-1.593l-0.464,0.063l0.54-1.521
		l-0.436,0.11c0,0,0.661-1.333,0.228-2.163l-0.497,0.016l0.233-2l-0.611,0.155l0.213-2.083l-0.716,0.254l0.089-1.702
		c0,0-0.432,0.275-0.552,0.453c-0.121,0.181,0.09-1.536,0.09-1.536s-0.363,0.535-0.563,0.697c-0.199,0.162-0.094-1.455-0.094-1.455
		l-0.659,0.023l-0.26-1.82l-0.304,0.262l0.039-1.303c0,0-0.844,0.105-0.92,0.457l-0.203-1.888c0,0-0.744,0.206-0.803,0.481
		l-0.051-1.65c0,0-0.813,0.151-0.896,0.338c-0.081,0.188-0.218-1.441-0.218-1.441s-0.348,0.09-0.429,0.276
		c-0.084,0.188-0.878-1.624-0.878-1.624s-0.268,0.105-0.423,0.44l-0.227-1.031c0,0-0.446,0.353-0.525,0.704l-0.465-1.616
		c0,0-0.725,0.497-0.872,0.793l-0.698-1.502c0,0-0.703,0.216-0.799,0.644c0,0-1.038-1.821-1.267-1.708c0,0-0.578,0.202-0.744,0.577
		l-0.991-1.281c0,0-0.69-0.027-0.786,0.403l-0.987-1.116c0,0-0.631,0.068-0.74,0.374l-1.123-1.065c0,0-0.542,0.416-0.594,0.65
		c-0.051,0.235-1.171-1.402-1.171-1.402s-0.866,0.387-0.907,0.581l-1.781-1.245c0,0-0.216,0.239-0.324,0.545l-1.78-1.249
		c0,0-0.291,0.019-0.463,0.432l-0.512-0.479c0,0-0.122,0.178-0.164,0.374l-2.329-2.309c0,0-0.101-0.105-0.413,0.199
		c0,0-0.891-1.177-1.317-1.106c0,0-1.991-1.784-2.045-3.23c0,0-0.401,3.52-0.083,5.062l-0.656,0.187c0,0,0.479,1.005,0.199,1.722
		c0,0,0.041,2.056,0.574,2.623l-0.665,0.224c0,0,0.274,1.945,0.492,2.443l-0.809,0.315c0,0,0.042,1.69,0.709,2.204l-0.876,0.055
		c0,0-0.021,1.225,0.361,1.92l-0.73,0.335c0,0,0.07,1.737,0.761,2.335l-0.856,0.347c0,0-0.3,1.37,0.461,1.822
		c0,0-0.715,0.09-0.767,0.326c0,0,0.205,0.944,0.835,1.246l-0.682,0.302c0,0,0.364,1.144,0.888,1.38l-0.625,0.236
		c0,0,0.196,0.409,0.746,0.898l-0.569,0.163c0,0-0.234,0.318,0.535,0.934l-0.665,0.226c0,0-0.132,0.791,0.9,1.138l-0.721,0.293
		c0,0,0.099,1.046,1.083,1.424l-0.603,0.32c0,0,0.079,1.328,1.364,1.647l-0.647,0.516c0,0,0.818,0.956,1.562,1.117l-0.884,0.095
		c0,0,0.673,0.68,1.192,0.752l-0.612,0.357c0,0,0.311,0.641,1.339,0.823l-0.631,0.437c0,0,0.178,0.694,1.568,0.914l-0.521,0.501
		c0,0,0.873,0.887,1.829,1.012l-0.854,0.347c0,0,0.832,1.082,1.846,1.139l-0.772,0.53c0,0,0.213,0.702,1.621,0.841l-0.407,0.731
		c0,0,0.714,0.484,1.778,0.509l-0.516,0.666c0,0,1.626,0.64,2.139,0.547l-0.313,0.3c0,0,1.008,0.465,1.45,0.315l-0.254,0.232
		c0,0,1.107,0.568,1.637,0.396l-0.312,0.302c0,0,0.701,0.358,1.245,0.311l-0.152,0.131c0,0,2.275,0.862,3.899,0.764
		c0,0,2.605,0.484,3.665,0.139c0,0,1.388-0.148,1.671-0.127l1.806-0.183c0,0,1.8-0.346,2.32,0.094
		c0.12,0.102,0.208,0.159,0.275,0.192c0.587,1.098,2.409,4.589,1.931,4.795l0.17-0.023c-0.285,0.354-0.562,0.712-0.852,1.062
		l-1.052,1.272c-0.358,0.418-0.715,0.836-1.071,1.253c-0.706,0.838-1.441,1.647-2.156,2.462c-0.72,0.809-1.454,1.596-2.169,2.38
		c-0.732,0.771-1.443,1.542-2.163,2.282c-1.432,1.484-2.835,2.903-4.191,4.221c-1.35,1.324-2.651,2.55-3.859,3.673
		c-2.422,2.239-4.491,4.045-5.953,5.286c-0.277,0.234-0.524,0.441-0.755,0.635c-0.556-0.095-1.475-0.183-1.992,0.141l-0.082-0.919
		c0,0-1.221-0.688-1.877-0.092c0,0,0.124-0.712-0.085-0.828c0,0-0.964-0.082-1.438,0.434l-0.088-0.741c0,0-1.202,0.014-1.581,0.445
		l-0.041-0.666c0,0-0.449,0.066-1.077,0.45l0.01-0.593c0,0-0.236-0.315-1.049,0.24l-0.021-0.704c0,0-0.719-0.355-1.353,0.529
		l-0.068-0.775c0,0-1.03-0.211-1.679,0.62l-0.13-0.671c0,0-1.293-0.312-1.975,0.823l-0.303-0.77c0,0-1.154,0.501-1.525,1.166
		l0.168-0.873c0,0-0.847,0.445-1.066,0.921l-0.165-0.69c0,0-0.703,0.11-1.177,1.04l-0.236-0.731c0,0-0.435-0.011-0.92,0.582
		c-4.07-0.975-8.008-2.024-11.812-3.132l0.403,0.063l-0.161-0.367l1.233,0.417c0,0,0.148-0.838-0.166-1.013l1.864,0.357
		c0,0,0.02-0.771-0.225-0.909l1.591,0.434c0,0,0.094-0.821-0.061-0.955c-0.155-0.132,1.442,0.214,1.442,0.214
		s0.018-0.359-0.138-0.492c-0.155-0.135,1.81-0.364,1.81-0.364s-0.022-0.286-0.297-0.532l1.052,0.084c0,0-0.207-0.53-0.52-0.707
		l1.682,0.027c0,0-0.264-0.839-0.504-1.065l1.641-0.229c0,0,0.001-0.735-0.383-0.953c0,0,2.046-0.461,2.005-0.713
		c0,0-0.025-0.611-0.334-0.879l1.515-0.574c0,0,0.228-0.651-0.157-0.87l1.357-0.615c0,0,0.12-0.624-0.141-0.817l1.346-0.763
		c0,0-0.239-0.641-0.448-0.758c-0.209-0.118,1.683-0.71,1.683-0.71s-0.116-0.94-0.29-1.037l1.712-1.339c0,0-0.166-0.276-0.426-0.469
		l1.714-1.337c0,0,0.068-0.285-0.277-0.57l0.608-0.35c0,0-0.135-0.168-0.311-0.265l2.89-1.551c0,0,0.129-0.066-0.069-0.454
		c0,0,1.386-0.508,1.444-0.937c0,0,2.287-1.382,3.686-1.009c0,0-3.249-1.414-4.817-1.561l0.012-0.682c0,0-1.099,0.165-1.703-0.313
		c0,0-1.979-0.562-2.677-0.219l-0.019-0.701c0,0-1.939-0.306-2.481-0.244l-0.065-0.867c0,0-1.627-0.455-2.314,0.035l0.202-0.854
		c0,0-1.163-0.378-1.941-0.216l-0.105-0.797c0,0-1.683-0.44-2.457,0.045l-0.083-0.921c0,0-1.221-0.686-1.877-0.09
		c0,0,0.124-0.711-0.085-0.829c0,0-0.963-0.081-1.437,0.434l-0.088-0.74c0,0-1.202,0.013-1.581,0.444l-0.042-0.666
		c0,0-0.45,0.067-1.077,0.451l0.01-0.592c0,0-0.237-0.318-1.049,0.239l-0.021-0.703c0,0-0.719-0.358-1.353,0.529l-0.069-0.775
		c0,0-1.029-0.212-1.679,0.618l-0.129-0.67c0,0-1.292-0.312-1.974,0.822L62.319,72c0,0-1.154,0.502-1.526,1.166l0.168-0.873
		c0,0-0.847,0.445-1.067,0.92l-0.164-0.689c0,0-0.703,0.11-1.177,1.038l-0.235-0.73c0,0-0.715-0.033-1.332,1.232l-0.327-0.646
		c0,0-1.103,0.576-1.503,1.455l-0.081-0.919c0,0-1.279,0.478-1.629,1.432l-0.281-0.893c0,0-0.734-0.001-1.279,1.304l-0.58-0.604
		c0,0-0.672,0.543-1.006,1.553l-0.487-0.69c0,0-1.087,1.369-1.149,1.887l-0.195-0.388c0,0-0.739,0.828-0.726,1.295l-0.146-0.311
		c0,0-0.867,0.893-0.859,1.45l-0.196-0.387c0,0-0.547,0.566-0.661,1.1L45.8,80.519c0,0-1.491,1.922-1.871,3.504
		c0,0-1.226,2.35-1.207,3.464c0,0-0.263,1.371-0.366,1.635l-0.353,1.781c0,0-0.195,1.822-0.769,2.19
		c-0.133,0.085-0.214,0.152-0.264,0.207c-0.589,0.116-1.778,0.34-2.866,0.487c-1.536-0.65-3.037-1.3-4.483-1.946
		c-6.803-3.043-12.583-6.017-17.246-8.62C11.71,80.62,8.153,78.396,5.779,76.83c-1.188-0.783-2.082-1.402-2.675-1.821
		c-0.292-0.21-0.514-0.371-0.662-0.477c-0.142-0.105-0.215-0.159-0.215-0.159L0,77.334c0,0,0.082,0.062,0.244,0.182
		c0.159,0.116,0.397,0.287,0.71,0.514c0.623,0.445,1.55,1.09,2.771,1.901c2.443,1.621,6.068,3.912,10.818,6.57
		c4.754,2.654,10.632,5.679,17.544,8.771c1.125,0.503,2.287,1.009,3.466,1.515c0.055,0.118,0.122,0.261,0.21,0.45
		c0.225,0.479,0.561,1.175,0.993,2.056c0.87,1.758,2.144,4.247,3.755,7.184c0.811,1.467,1.697,3.048,2.669,4.703
		c0.963,1.658,2.015,3.386,3.124,5.16c0.551,0.889,1.134,1.778,1.712,2.686c0.597,0.897,1.19,1.811,1.809,2.718
		c0.625,0.902,1.239,1.822,1.891,2.723c0.322,0.452,0.645,0.906,0.968,1.359l0.993,1.346c1.321,1.797,2.702,3.549,4.09,5.25
		c0.689,0.853,1.41,1.671,2.102,2.494c0.707,0.81,1.424,1.595,2.119,2.375c0.719,0.756,1.428,1.5,2.122,2.229
		c0.717,0.705,1.41,1.403,2.099,2.067c0.704,0.647,1.389,1.279,2.051,1.889c0.684,0.584,1.346,1.15,1.98,1.692
		c1.305,1.042,2.503,1.991,3.623,2.758c0.929,0.691,1.804,1.222,2.547,1.695l-0.316,0.259c0,0,2.974,2.294,4.776,3.49
		c0.146,0.591,0.328,1.408,0.326,1.84c0,0,0.068,1.887-0.024,2.472l0.389,2.199l0.015,2.584l0.034,0.583l0.237-0.297
		c0,0-0.033,2.092,0.278,2.366l0.313-0.196l0.307,1.844l0.298-0.358c0,0-0.034,0.988,0.333,1.666l0.361-0.3l0.342,1.579l0.312-0.324
		c0,0,0.136,1.482,0.942,1.962l0.415-0.275l0.853,1.824l0.436-0.452l0.915,1.884l0.476-0.593l0.819,1.494
		c0,0,0.222-0.46,0.232-0.676c0.008-0.217,0.731,1.355,0.731,1.355s0.027-0.647,0.112-0.888c0.085-0.244,0.844,1.188,0.844,1.188
		l0.55-0.366l1.177,1.412l0.12-0.384l0.652,1.128c0,0,0.663-0.532,0.543-0.871l1.164,1.5c0,0,0.526-0.565,0.432-0.831l0.909,1.376
		c0,0,0.613-0.556,0.585-0.758c-0.03-0.202,0.942,1.111,0.942,1.111s0.25-0.259,0.22-0.461c-0.027-0.203,1.601,0.922,1.601,0.922
		s0.173-0.232,0.129-0.596l0.735,0.756c0,0,0.193-0.534,0.076-0.874l1.245,1.131c0,0,0.356-0.804,0.325-1.133l1.384,0.911
		c0,0,0.486-0.554,0.34-0.971c0,0,1.841,1.006,1.977,0.789c0,0,0.385-0.476,0.329-0.882l1.517,0.568c0,0,0.602-0.338,0.456-0.756
		l1.427,0.432c0,0,0.501-0.389,0.433-0.706l1.515,0.313c0,0,0.244-0.637,0.163-0.863c-0.079-0.228,1.733,0.577,1.733,0.577
		s0.533-0.784,0.466-0.973l2.171,0.124c0,0,0.057-0.316-0.011-0.633l2.171,0.127c0,0,0.238-0.17,0.166-0.612l0.689,0.141
		c0,0,0.009-0.217-0.058-0.405l3.194,0.74c0,0,0.14,0.036,0.247-0.386c0,0,1.377,0.532,1.703,0.249c0,0,2.632,0.472,3.436,1.673
		c0,0-1.508-3.204-2.589-4.35l0.459-0.504c0,0-0.934-0.603-1.073-1.36c0,0-1.117-1.729-1.867-1.932l0.448-0.54
		c0,0-1.255-1.51-1.703-1.818l0.523-0.694c0,0-0.922-1.415-1.76-1.502l0.715-0.507c0,0-0.625-1.054-1.316-1.445l0.446-0.668
		c0,0-0.974-1.44-1.876-1.587l0.545-0.746c0,0-0.463-1.322-1.349-1.305c0,0,0.562-0.454,0.482-0.682c0,0-0.669-0.696-1.366-0.622
		l0.422-0.614c0,0-0.912-0.782-1.48-0.708l0.407-0.528c0,0-0.381-0.246-1.106-0.373l0.397-0.438c0,0,0.032-0.394-0.945-0.513
		l0.448-0.542c0,0-0.305-0.742-1.365-0.495l0.46-0.629c0,0-0.635-0.838-1.671-0.642l0.346-0.589c0,0-0.766-1.088-2.027-0.686
		l0.279-0.778c0,0-1.197-0.384-1.915-0.131l0.703-0.544c0,0-0.93-0.225-1.409-0.014l0.332-0.626c0,0-0.602-0.382-1.571,0.004
		l0.306-0.704c0,0-0.515-0.496-1.813,0.048l0.179-0.701c0,0-1.208-0.296-2.089,0.101l0.546-0.744c0,0-1.275-0.482-2.168,0.001
		l0.378-0.854c0,0-0.551-0.486-1.822,0.135l-0.039-0.837c0,0-0.862-0.035-1.78,0.502l0.091-0.837c0,0-1.721,0.309-2.11,0.658
		l0.11-0.421c0,0-1.102,0.136-1.401,0.494l0.096-0.331c0,0-1.24,0.1-1.6,0.524l0.107-0.421c0,0-0.785,0.063-1.223,0.39l0.06-0.19
		c0,0-2.389,0.462-3.718,1.398c0,0-2.471,0.958-3.194,1.807c0,0-1.101,0.856-1.353,0.987l-1.441,1.104c0,0-1.349,1.242-2.022,1.141
		c-0.157-0.023-0.262-0.027-0.336-0.019c-0.804-0.468-2.88-1.701-3.767-2.479c0.31,0.188,0.61,0.35,0.864,0.498
		c0.329,0.186,0.609,0.341,0.834,0.468c0.454,0.255,0.695,0.391,0.695,0.391s-0.234-0.148-0.674-0.427
		c-0.219-0.138-0.489-0.309-0.807-0.51c-0.314-0.207-0.693-0.417-1.08-0.708c-0.071-0.052-0.151-0.107-0.225-0.161
		c-0.022-0.055-0.027-0.102-0.003-0.137l-0.088,0.072c-0.725-0.519-1.583-1.099-2.489-1.85c-1.07-0.817-2.211-1.822-3.447-2.92
		c-0.6-0.569-1.226-1.164-1.873-1.777c-0.623-0.639-1.267-1.296-1.93-1.974c-0.647-0.693-1.296-1.419-1.966-2.151
		c-0.648-0.754-1.309-1.526-1.981-2.311c-0.647-0.807-1.313-1.618-1.969-2.453c-0.641-0.85-1.309-1.691-1.945-2.569
		c-0.898-1.228-1.783-2.486-2.654-3.76c1.043-0.07,3.755-0.269,5.458-0.5c0.5,0.348,1.177,0.843,1.461,1.167
		c0,0,1.296,1.373,1.613,1.874l1.742,1.396l1.718,1.932l0.409,0.415l-0.017-0.379c0,0,1.357,1.594,1.77,1.594l0.105-0.353
		l1.448,1.182l-0.013-0.467c0,0,0.627,0.766,1.349,1.033l0.075-0.463l1.298,0.961l0.021-0.449c0,0,1.082,1.023,2.003,0.852
		l0.131-0.48l1.843,0.808l0.029-0.628l1.932,0.812l-0.035-0.76l1.603,0.582c0,0-0.137-0.493-0.273-0.661
		c-0.137-0.167,1.443,0.537,1.443,0.537s-0.405-0.505-0.501-0.742c-0.096-0.238,1.418,0.336,1.418,0.336l0.171-0.64l1.817,0.285
		l-0.162-0.368l1.234,0.42c0,0,0.147-0.839-0.167-1.015l1.864,0.359c0,0,0.021-0.771-0.224-0.908l1.591,0.433
		c0,0,0.094-0.821-0.061-0.955c-0.155-0.132,1.442,0.214,1.442,0.214s0.017-0.36-0.139-0.492c-0.154-0.134,1.809-0.363,1.809-0.363
		s-0.021-0.289-0.296-0.534l1.053,0.085c0,0-0.207-0.53-0.52-0.708l1.682,0.027c0,0-0.264-0.838-0.504-1.065l1.64-0.229
		c0,0,0.001-0.735-0.383-0.951c0,0,2.047-0.46,2.006-0.714c0,0-0.025-0.611-0.335-0.878l1.516-0.575c0,0,0.229-0.651-0.156-0.869
		l1.355-0.617c0,0,0.121-0.623-0.14-0.815l1.346-0.764c0,0-0.239-0.641-0.448-0.757c-0.209-0.119,1.683-0.711,1.683-0.711
		s-0.116-0.939-0.29-1.037l1.711-1.34c0,0-0.165-0.274-0.426-0.469l1.714-1.337c0,0,0.069-0.284-0.277-0.568l0.608-0.351
		c0,0-0.134-0.168-0.309-0.266l2.889-1.551c0,0,0.128-0.066-0.069-0.454c0,0,1.38-0.506,1.442-0.934
		c2.664,0.273,5.353,0.513,8.069,0.705c5.802,0.418,11.715,0.642,17.699,0.663c0.126,0,0.253-0.002,0.378-0.002l-0.433,0.524
		c0,0,0.169,0.131,0.488,0.376c0.315,0.238,0.78,0.585,1.371,1.028c1.187,0.872,2.894,2.092,4.983,3.496
		c1.046,0.699,2.185,1.448,3.402,2.216c1.216,0.774,2.513,1.563,3.865,2.364c0.673,0.401,1.37,0.794,2.068,1.2
		c0.708,0.392,1.418,0.796,2.144,1.188c1.451,0.781,2.934,1.562,4.442,2.291c1.501,0.742,3.027,1.435,4.538,2.09
		c0.754,0.332,1.518,0.628,2.263,0.938c0.753,0.288,1.499,0.573,2.232,0.852c0.742,0.258,1.471,0.51,2.184,0.755
		c0.721,0.225,1.427,0.443,2.114,0.655c0.693,0.19,1.367,0.374,2.019,0.552c0.659,0.154,1.295,0.304,1.906,0.446
		c1.229,0.244,2.355,0.464,3.366,0.589c0.858,0.142,1.625,0.192,2.284,0.252l-0.122,0.281c0,0,2.774,0.503,4.389,0.679
		c0.302,0.345,0.706,0.827,0.854,1.116c0,0,0.695,1.235,0.835,1.656l1.019,1.332l0.901,1.719l0.224,0.376l0.057-0.278
		c0,0,0.7,1.406,1.001,1.481l0.14-0.239l0.842,1.124l0.075-0.343c0,0,0.318,0.672,0.797,0.998l0.139-0.324l0.771,0.936l0.097-0.324
		c0,0,0.603,0.941,1.305,0.981l0.182-0.326l1.196,0.922l0.137-0.451l1.26,0.939l0.111-0.559l1.063,0.715
		c0,0-0.011-0.384-0.079-0.531c-0.068-0.146,0.954,0.651,0.954,0.651s-0.205-0.44-0.229-0.631c-0.029-0.192,0.973,0.501,0.973,0.501
		l0.24-0.434l1.271,0.535l-0.05-0.297l0.823,0.529c0,0,0.259-0.586,0.061-0.771l1.294,0.598c0,0,0.155-0.558,0.002-0.701
		l1.081,0.604c0,0,0.217-0.582,0.129-0.707c-0.091-0.125,1.012,0.416,1.012,0.416s0.076-0.26-0.012-0.383
		c-0.089-0.126,1.384,0.062,1.384,0.062s0.035-0.215-0.119-0.443l0.752,0.252c0,0-0.056-0.424-0.251-0.61l1.221,0.325
		c0,0-0.04-0.659-0.174-0.868l1.235,0.131c0,0,0.135-0.538-0.106-0.765c0,0,1.574,0.035,1.59-0.157c0,0,0.092-0.448-0.084-0.7
		l1.208-0.145c0,0,0.283-0.434,0.043-0.662l1.1-0.205c0,0,0.2-0.432,0.047-0.619l1.117-0.312c0,0-0.058-0.51-0.188-0.633
		c-0.131-0.124,1.354-0.213,1.354-0.213s0.084-0.706-0.022-0.81l1.489-0.667c0,0-0.072-0.23-0.227-0.419l1.492-0.663
		c0,0,0.101-0.195-0.1-0.466l0.506-0.145c0,0-0.067-0.148-0.179-0.249l2.387-0.608c0,0,0.106-0.025,0.032-0.344
		c0,0,1.103-0.119,1.222-0.421c0,0,1.918-0.595,2.869-0.07c0,0-2.112-1.616-3.229-2.007l0.133-0.495c0,0-0.831-0.08-1.186-0.536
		c0,0-1.341-0.768-1.911-0.644l0.113-0.517c0,0-1.359-0.572-1.765-0.625l0.109-0.642c0,0-1.104-0.628-1.691-0.396l0.301-0.586
		c0,0-0.779-0.485-1.374-0.51l0.065-0.598c0,0-1.146-0.625-1.799-0.412l0.107-0.687c0,0-0.767-0.72-1.352-0.403
		c0,0,0.218-0.497,0.086-0.622c0,0-0.685-0.232-1.125,0.058l0.071-0.556c0,0-0.88-0.207-1.233,0.038l0.091-0.492
		c0,0-0.342-0.033-0.867,0.133l0.112-0.43c0,0-0.113-0.274-0.807-0.016l0.113-0.517c0,0-0.46-0.389-1.081,0.142l0.089-0.577
		c0,0-0.712-0.341-1.336,0.147l0.027-0.512c0,0-0.886-0.461-1.588,0.242l-0.083-0.616c0,0-0.932,0.158-1.321,0.576l0.279-0.607
		c0,0-0.696,0.172-0.943,0.478l0.006-0.531c0,0-0.533-0.047-1.047,0.543l-0.038-0.575c0,0-0.515-0.153-1.193,0.659l-0.122-0.53
		c0,0-0.907,0.219-1.358,0.788l0.107-0.684c0,0-1.019,0.116-1.446,0.747l-0.043-0.7c0,0-0.533-0.134-1.167,0.718l-0.314-0.544
		c0,0-0.589,0.273-1.015,0.948l-0.229-0.588c0,0-1.04,0.8-1.179,1.167l-0.072-0.319c0,0-0.688,0.47-0.763,0.812l-0.051-0.254
		c0,0-0.793,0.494-0.886,0.901l-0.075-0.317c0,0-0.5,0.314-0.68,0.684l-0.026-0.148c0,0-1.434,1.132-1.998,2.214
		c0,0-1.318,1.491-1.506,2.308c0,0-0.439,0.951-0.561,1.126l-0.581,1.232c0,0-0.472,1.294-0.956,1.458
		c-0.112,0.038-0.183,0.072-0.23,0.104c-0.697-0.034-2.507-0.142-3.367-0.354c0.617,0.04,1.119,0.041,1.466,0.061
		c0.39,0.013,0.598,0.02,0.598,0.02s-0.208-0.018-0.598-0.052c-0.387-0.04-0.959-0.066-1.679-0.16
		c-0.064-0.011-0.136-0.02-0.203-0.03c-0.034-0.028-0.055-0.06-0.051-0.092l-0.034,0.08c-0.662-0.096-1.434-0.186-2.297-0.375
		c-0.996-0.176-2.104-0.454-3.308-0.759c-0.596-0.173-1.218-0.354-1.861-0.539c-0.636-0.211-1.293-0.427-1.969-0.65
		c-0.667-0.246-1.353-0.498-2.054-0.756c-0.691-0.28-1.398-0.566-2.117-0.858c-0.71-0.313-1.431-0.633-2.16-0.955
		c-0.721-0.347-1.457-0.678-2.184-1.043c-1.022-0.51-2.047-1.043-3.067-1.593c0.67-0.406,2.411-1.475,3.468-2.217
		c0.453,0.06,1.075,0.156,1.377,0.275c0,0,1.338,0.468,1.722,0.692l1.644,0.33l1.811,0.695l0.417,0.136l-0.143-0.246
		c0,0,1.454,0.595,1.73,0.451l-0.051-0.271l1.373,0.29l-0.169-0.309c0,0,0.683,0.295,1.257,0.224l-0.111-0.334l1.198,0.192
		l-0.141-0.306c0,0,1.074,0.308,1.629-0.124l-0.078-0.365l1.507-0.098l-0.197-0.429l1.568-0.124l-0.285-0.495l1.27-0.165
		c0,0-0.26-0.281-0.41-0.347c-0.148-0.065,1.148-0.14,1.148-0.14s-0.445-0.197-0.59-0.322c-0.148-0.127,1.061-0.266,1.061-0.266
		l-0.106-0.485l1.31-0.436l-0.235-0.19l0.968-0.146c0,0-0.191-0.611-0.461-0.619l1.366-0.404c0,0-0.252-0.521-0.462-0.528l1.21-0.26
		c0,0-0.221-0.58-0.37-0.617c-0.15-0.033,1.035-0.354,1.035-0.354s-0.113-0.246-0.262-0.281c-0.15-0.037,1.082-0.867,1.082-0.867
		s-0.114-0.184-0.383-0.253l0.732-0.306c0,0-0.322-0.284-0.59-0.294l1.13-0.562c0,0-0.465-0.467-0.703-0.534l1.014-0.721
		c0,0-0.253-0.489-0.583-0.503c0,0,1.206-1.012,1.091-1.168c0,0-0.228-0.397-0.527-0.469l0.813-0.907c0,0-0.073-0.513-0.404-0.525
		l0.691-0.879c0,0-0.135-0.457-0.375-0.495l0.634-0.976c0,0-0.38-0.344-0.559-0.349c-0.18-0.007,0.877-1.056,0.877-1.056
		s-0.403-0.586-0.551-0.592l0.134-0.292c0.206-0.04,0.412-0.076,0.618-0.115l4.554-0.924c1.511-0.338,3.021-0.674,4.531-1.012
		c1.513-0.325,3.012-0.701,4.512-1.072l2.25-0.553l1.123-0.277l1.117-0.301c1.49-0.398,2.978-0.798,4.464-1.195
		c1.483-0.407,2.955-0.853,4.428-1.275l2.209-0.641c0.731-0.229,1.462-0.456,2.191-0.685c1.459-0.457,2.914-0.913,4.367-1.368
		c3.359-1.096,6.701-2.181,10.027-3.257c0.086,0.071,0.173,0.144,0.269,0.219c0.926,0.753,2.265,1.804,3.92,2.994
		c1.65,1.194,3.619,2.53,5.787,3.862c1.081,0.672,2.219,1.329,3.382,1.985c1.17,0.645,2.366,1.283,3.584,1.882
		c0.607,0.3,1.217,0.599,1.832,0.876c0.609,0.289,1.226,0.561,1.84,0.821c1.224,0.531,2.446,1.012,3.639,1.445
		c0.399,0.146,0.789,0.276,1.182,0.409c-0.598-0.022-1.301-0.005-1.695,0.151c0,0-1.031,0.181-1.246,0.178l-1.343,0.226
		c0,0-1.332,0.348-1.744,0.044c-0.095-0.07-0.163-0.109-0.215-0.131c-0.493-0.794-2.028-3.32-1.682-3.499l-0.523,0.105
		c0,0,1.165,2.568,1.938,3.997c-0.11,0.443-0.279,1.05-0.432,1.335c0,0-0.619,1.274-0.886,1.631l-0.517,1.595l-0.9,1.72
		l-0.183,0.398l0.261-0.113c0,0-0.756,1.375-0.647,1.665l0.276-0.019l-0.446,1.331l0.325-0.133c0,0-0.372,0.645-0.365,1.223
		l0.344-0.07l-0.33,1.166l0.321-0.104c0,0-0.432,1.03-0.064,1.632l0.372-0.036l-0.077,1.509l0.448-0.146l-0.057,1.571l0.525-0.225
		l0.016,1.281c0,0,0.311-0.229,0.392-0.368c0.082-0.141,0.008,1.156,0.008,1.156s0.246-0.42,0.389-0.55
		c0.14-0.132,0.14,1.084,0.14,1.084l0.495-0.048l0.283,1.351l0.214-0.21l0.034,0.977c0,0,0.628-0.119,0.667-0.387l0.246,1.404
		c0,0,0.546-0.191,0.578-0.399l0.118,1.234c0,0,0.602-0.154,0.654-0.299c0.052-0.144,0.233,1.07,0.233,1.07s0.257-0.085,0.31-0.229
		c0.053-0.145,0.736,1.175,0.736,1.175s0.196-0.093,0.295-0.351l0.222,0.762c0,0,0.316-0.287,0.358-0.555l0.428,1.188
		c0,0,0.519-0.407,0.614-0.636l0.596,1.091c0,0,0.519-0.194,0.567-0.523c0,0,0.867,1.315,1.034,1.22c0,0,0.424-0.181,0.528-0.47
		l0.807,0.912c0,0,0.518-0.013,0.566-0.341l0.796,0.788c0,0,0.471-0.082,0.535-0.316l0.896,0.743c0,0,0.385-0.339,0.411-0.516
		c0.028-0.18,0.946,0.993,0.946,0.993s0.63-0.332,0.652-0.48l1.396,0.846c0,0,0.148-0.189,0.216-0.424l1.393,0.849
		c0,0,0.219-0.028,0.327-0.347l0.408,0.335c0,0,0.082-0.14,0.103-0.29l1.858,1.618c0,0,0.081,0.073,0.3-0.169
		c0,0,0.726,0.837,1.042,0.765c0,0,1.579,1.238,1.689,2.318c0,0,0.128-2.657-0.186-3.796l0.483-0.173c0,0-0.409-0.73-0.234-1.28
		c0,0-0.131-1.538-0.558-1.938l0.486-0.2c0,0-0.3-1.443-0.486-1.808l0.591-0.274c0,0-0.114-1.266-0.639-1.616l0.651-0.086
		c0,0-0.043-0.917-0.364-1.421l0.531-0.285c0,0-0.139-1.299-0.685-1.715l0.624-0.3c0,0,0.159-1.041-0.436-1.343
		c0,0,0.533-0.103,0.561-0.281c0,0-0.199-0.699-0.688-0.894l0.498-0.26c0,0-0.33-0.84-0.732-0.991l0.457-0.206
		c0,0-0.167-0.299-0.604-0.638l0.418-0.149c0,0,0.16-0.25-0.446-0.674l0.487-0.202c0,0,0.062-0.599-0.729-0.808l0.526-0.255
		c0,0-0.127-0.779-0.884-1.014l0.438-0.27c0,0-0.124-0.991-1.104-1.168l0.46-0.418c0,0-0.66-0.676-1.226-0.761l0.66-0.114
		c0,0-0.539-0.475-0.933-0.505l0.441-0.298c0,0-0.265-0.465-1.043-0.551l0.452-0.359c0,0-0.167-0.51-1.22-0.607l0.366-0.401
		c0,0-0.698-0.621-1.422-0.669l0.625-0.302c0,0-0.677-0.769-1.439-0.763l0.553-0.434c0,0-0.194-0.517-1.255-0.553l0.269-0.567
		c0,0-0.561-0.327-1.358-0.294l0.331-0.49c0.103,0.017,0.197,0.032,0.296,0.048l-0.055,0.129c0,0,2.775,0.503,4.388,0.679
		c0.304,0.344,0.707,0.826,0.855,1.115c0,0,0.696,1.235,0.836,1.657l1.017,1.331l0.902,1.719l0.224,0.376l0.058-0.277
		c0,0,0.699,1.405,1.001,1.479l0.141-0.238l0.84,1.125l0.076-0.343c0,0,0.318,0.671,0.796,0.996l0.14-0.323l0.771,0.935l0.097-0.323
		c0,0,0.604,0.942,1.307,0.983l0.182-0.327l1.197,0.921l0.135-0.45l1.26,0.94l0.113-0.561l1.063,0.715c0,0-0.012-0.384-0.079-0.531
		c-0.069-0.146,0.954,0.652,0.954,0.652s-0.205-0.44-0.23-0.632c-0.027-0.192,0.972,0.502,0.972,0.502l0.242-0.435l1.271,0.536
		l-0.05-0.299l0.822,0.529c0,0,0.258-0.585,0.062-0.769l1.294,0.597c0,0,0.155-0.557,0.001-0.702l1.081,0.605
		c0,0,0.217-0.581,0.13-0.707c-0.09-0.125,1.012,0.416,1.012,0.416s0.076-0.26-0.013-0.385c-0.089-0.126,1.384,0.062,1.384,0.062
		s0.037-0.213-0.12-0.442l0.752,0.251c0,0-0.054-0.424-0.25-0.609l1.222,0.324c0,0-0.041-0.658-0.176-0.866l1.237,0.13
		c0,0,0.134-0.537-0.108-0.765c0,0,1.576,0.036,1.592-0.156c0,0,0.093-0.45-0.085-0.701l1.208-0.145c0,0,0.284-0.435,0.044-0.661
		l1.1-0.205c0,0,0.2-0.433,0.045-0.62l1.12-0.312c0,0-0.059-0.51-0.191-0.634c-0.13-0.124,1.355-0.212,1.355-0.212
		s0.085-0.706-0.023-0.809l1.489-0.666c0,0-0.071-0.231-0.225-0.42l1.49-0.664c0,0,0.102-0.195-0.099-0.466l0.507-0.145
		c0,0-0.068-0.147-0.179-0.249l2.387-0.609c0,0,0.105-0.022,0.031-0.343c0,0,1.103-0.119,1.221-0.421c0,0,1.918-0.594,2.869-0.069
		c0,0-2.11-1.618-3.227-2.008l0.131-0.495c0,0-0.83-0.079-1.185-0.537c0,0-1.341-0.767-1.911-0.644l0.112-0.514
		c0,0-1.357-0.574-1.763-0.626l0.109-0.644c0,0-1.104-0.626-1.691-0.394l0.3-0.586c0,0-0.779-0.486-1.374-0.51l0.065-0.599
		c0,0-1.146-0.625-1.798-0.412l0.106-0.686c0,0-0.765-0.722-1.351-0.404c0,0,0.218-0.497,0.086-0.621c0,0-0.687-0.233-1.125,0.057
		l0.07-0.557c0,0-0.879-0.205-1.232,0.04l0.089-0.493c0,0-0.339-0.032-0.866,0.134l0.114-0.43c0,0-0.115-0.275-0.808-0.017
		l0.11-0.516c0,0-0.458-0.39-1.08,0.142l0.092-0.578c0,0-0.715-0.34-1.336,0.147l0.026-0.512c0,0-0.886-0.461-1.588,0.243
		l-0.083-0.617c0,0-0.932,0.159-1.322,0.575l0.28-0.606c0,0-0.698,0.171-0.944,0.479l0.007-0.532c0,0-0.534-0.048-1.049,0.543
		l-0.036-0.575c0,0-0.517-0.152-1.194,0.658l-0.12-0.529c0,0-0.91,0.221-1.36,0.787l0.108-0.684c0,0-1.02,0.117-1.447,0.748
		l-0.042-0.701c0,0-0.536-0.133-1.169,0.719l-0.313-0.544c0,0-0.587,0.274-1.015,0.948l-0.229-0.589c0,0-1.04,0.801-1.181,1.167
		l-0.07-0.318c0,0-0.688,0.47-0.765,0.813l-0.049-0.254c0,0-0.795,0.493-0.888,0.9l-0.074-0.316c0,0-0.501,0.313-0.68,0.682
		l-0.026-0.148c0,0-1.435,1.133-1.998,2.217c0,0-1.316,1.489-1.506,2.306c0,0-0.439,0.952-0.561,1.125l-0.581,1.235
		c0,0-0.473,1.293-0.955,1.457c-0.113,0.037-0.185,0.071-0.231,0.103c-0.933-0.046-3.886-0.221-3.835-0.608l-0.103,0.238
		c-0.113-0.021-0.225-0.043-0.341-0.066c-0.462-0.105-0.96-0.216-1.483-0.341l0.088-0.096c0,0-0.779-0.299-1.102-0.165l0.179-0.185
		c0,0-0.857-0.372-1.246-0.218l0.22-0.24c0,0-0.543-0.234-0.949-0.172l0.107-0.107c0,0-1.408-0.43-2.573-0.406
		c-0.8-0.284-1.613-0.586-2.446-0.923c-1.168-0.474-2.362-0.992-3.557-1.562c-0.598-0.28-1.197-0.571-1.793-0.88
		c-0.599-0.297-1.189-0.614-1.782-0.934c-1.182-0.634-2.343-1.31-3.477-1.989c-1.126-0.689-2.227-1.38-3.271-2.083
		c-2.096-1.393-3.989-2.781-5.573-4.018c-1.342-1.04-2.459-1.971-3.306-2.699c6.239-2.015,12.408-3.99,18.48-5.913l0.027,0.019
		v-0.026c0.099-0.032,0.197-0.062,0.298-0.094c0.308,0.199,0.803,0.449,1.233,0.347l0.08-0.365l1.412,0.536l0.001-0.472l1.479,0.537
		l-0.056-0.569l1.225,0.377c0,0-0.122-0.364-0.229-0.486c-0.108-0.119,1.103,0.35,1.103,0.35s-0.325-0.363-0.403-0.537
		c-0.082-0.177,1.076,0.198,1.076,0.198l0.104-0.485l1.371,0.146l-0.134-0.27l0.941,0.267c0,0,0.079-0.635-0.164-0.754l1.412,0.198
		c0,0-0.015-0.579-0.202-0.672l1.21,0.265c0,0,0.039-0.618-0.081-0.714c-0.123-0.094,1.088,0.106,1.088,0.106s0-0.271-0.122-0.363
		c-0.12-0.096,1.344-0.342,1.344-0.342s-0.027-0.214-0.242-0.388l0.792,0.025c0,0-0.175-0.392-0.417-0.512l1.264-0.042
		c0,0-0.229-0.619-0.418-0.781l1.221-0.232c0,0-0.008-0.149-0.056-0.312c3.256-1.005,6.47-1.987,9.645-2.95
		c0.236,0.186,0.488,0.383,0.771,0.605c0.478,0.358,1.011,0.77,1.608,1.195c0.599,0.427,1.244,0.89,1.947,1.35
		c0.692,0.477,1.446,0.944,2.223,1.43c0.773,0.491,1.606,0.944,2.435,1.435c0.211,0.109,0.423,0.225,0.634,0.338l-0.019,0.093
		c0,0,0.07-0.002,0.184-0.005c0.588,0.314,1.179,0.631,1.785,0.925c0.439,0.21,0.881,0.42,1.319,0.629l0.658,0.311
		c0.224,0.094,0.446,0.187,0.668,0.278c0.443,0.184,0.879,0.37,1.313,0.548l0.54,0.654l0.209,0.229l-0.001-0.201
		c0,0,0.208,0.263,0.432,0.501c-0.007,0.255-0.022,0.646-0.056,0.808l0.118,0.936l-0.048,1.089l0.002,0.247l0.106-0.12
		c0,0-0.057,0.881,0.067,1.003l0.137-0.076l0.091,0.785l0.132-0.146c0,0-0.033,0.417,0.105,0.71l0.159-0.118l0.111,0.674
		l0.139-0.131c0,0,0.026,0.628,0.356,0.845l0.182-0.106l0.32,0.787l0.194-0.181l0.346,0.812l0.213-0.239l0.313,0.647
		c0,0,0.104-0.19,0.113-0.28c0.008-0.092,0.279,0.586,0.279,0.586s0.025-0.272,0.066-0.371c0.041-0.103,0.331,0.518,0.331,0.518
		l0.24-0.142l0.466,0.619l0.059-0.159l0.252,0.489c0,0,0.291-0.212,0.246-0.356l0.46,0.656c0,0,0.233-0.229,0.199-0.34l0.354,0.599
		c0,0,0.271-0.222,0.264-0.307c-0.01-0.087,0.375,0.487,0.375,0.487s0.108-0.104,0.1-0.189c-0.006-0.086,0.657,0.421,0.657,0.421
		s0.078-0.092,0.067-0.248l0.294,0.335c0,0,0.092-0.222,0.051-0.368l0.5,0.503c0,0,0.167-0.331,0.161-0.47l0.563,0.412
		c0,0,0.218-0.224,0.164-0.401c0,0,0.756,0.462,0.818,0.373c0,0,0.172-0.192,0.158-0.365l0.626,0.273c0,0,0.261-0.132,0.209-0.311
		l0.593,0.21c0,0,0.219-0.151,0.197-0.287l0.632,0.163c0,0,0.115-0.264,0.086-0.36c-0.028-0.098,0.719,0.281,0.719,0.281
		s0.242-0.32,0.217-0.401l0.912,0.098c0,0,0.032-0.132,0.01-0.268l0.913,0.099c0,0,0.104-0.065,0.082-0.255l0.288,0.074
		c0,0,0.007-0.091-0.017-0.172l1.332,0.38c0,0,0.059,0.018,0.111-0.158c0,0,0.57,0.254,0.714,0.139c0,0,1.1,0.256,1.412,0.778
		c0,0-0.568-1.383-1-1.888l0.204-0.202c0,0-0.382-0.275-0.424-0.597c0,0-0.435-0.752-0.747-0.854l0.2-0.219
		c0,0-0.498-0.663-0.681-0.802l0.236-0.281c0,0-0.36-0.617-0.712-0.671l0.313-0.199c0,0-0.243-0.457-0.526-0.636l0.203-0.273
		c0,0-0.381-0.627-0.759-0.708l0.246-0.304c0,0-0.168-0.566-0.542-0.578c0,0,0.247-0.179,0.218-0.277c0,0-0.268-0.308-0.562-0.29
		l0.19-0.252c0,0-0.369-0.348-0.61-0.329l0.184-0.214c0,0-0.156-0.11-0.458-0.181l0.177-0.175c0,0,0.021-0.165-0.389-0.237
		l0.201-0.219c0,0-0.114-0.319-0.566-0.236l0.208-0.256c0,0-0.091-0.13-0.256-0.222c-0.036-0.084-0.077-0.161-0.117-0.202
		l0.875-0.09c0,0,0.015-0.39-0.184-0.513c0,0,1.093-0.201,1.077-0.338c0,0-0.003-0.323-0.16-0.471l0.812-0.276
		c0,0,0.133-0.34-0.063-0.462l0.73-0.3c0,0,0.075-0.329-0.06-0.435l0.729-0.378c0,0-0.113-0.345-0.222-0.41
		c-0.109-0.068,0.906-0.344,0.906-0.344s-0.044-0.5-0.134-0.556l0.934-0.675c0,0-0.082-0.149-0.216-0.256l0.934-0.675
		c0,0,0.042-0.15-0.135-0.308l0.33-0.173c0,0-0.069-0.092-0.159-0.147l1.561-0.764c0,0,0.068-0.033-0.026-0.241
		c0,0,0.744-0.243,0.782-0.469c0,0,1.239-0.687,1.972-0.462c0,0-1.692-0.813-2.52-0.921l0.02-0.362c0,0-0.585,0.065-0.896-0.2
		c0,0-1.037-0.338-1.413-0.169l0.003-0.372c0,0-1.021-0.2-1.31-0.18l-0.016-0.458c0,0-0.855-0.274-1.228-0.028l0.125-0.448
		c0,0-0.609-0.224-1.024-0.154l-0.041-0.425c0,0-0.884-0.265-1.303-0.024l-0.023-0.488c0,0-0.635-0.39-0.994-0.087
		c0,0,0.079-0.374-0.028-0.441c0,0-0.509-0.061-0.771,0.201l-0.032-0.393c0,0-0.637-0.017-0.846,0.203l-0.01-0.353
		c0,0-0.239,0.027-0.579,0.218l0.016-0.313c0,0-0.118-0.173-0.561,0.105l0.004-0.372c0,0-0.374-0.204-0.727,0.253l-0.021-0.413
		c0,0-0.542-0.133-0.903,0.295l-0.054-0.356c0,0-0.68-0.192-1.063,0.395l-0.145-0.414c0,0-0.622,0.243-0.833,0.588l0.107-0.459
		c0,0-0.459,0.219-0.584,0.466l-0.073-0.368c0,0-0.375,0.044-0.646,0.527l-0.109-0.393c0,0-0.378-0.031-0.729,0.628l-0.16-0.35
		c0,0-0.596,0.285-0.826,0.742l-0.024-0.489c0,0-0.687,0.228-0.892,0.726l-0.131-0.478c0,0-0.389-0.016-0.705,0.665l-0.294-0.33
		c0,0-0.368,0.272-0.564,0.801l-0.242-0.374c0,0-0.604,0.704-0.646,0.977l-0.095-0.209c0,0-0.41,0.423-0.412,0.671l-0.072-0.168
		c0,0-0.478,0.455-0.481,0.751l-0.098-0.209c0,0-0.302,0.289-0.373,0.571l-0.037-0.1c0,0-0.829,0.989-1.062,1.82
		c0,0-0.694,1.22-0.708,1.811c0,0-0.166,0.722-0.226,0.86l-0.224,0.936c0,0-0.14,0.962-0.449,1.146
		c-0.073,0.043-0.116,0.077-0.145,0.105c-0.369,0.058-1.183,0.179-1.832,0.225c-0.423-0.245-0.843-0.492-1.262-0.731
		c-0.801-0.515-1.607-0.99-2.354-1.504c-0.752-0.508-1.478-0.996-2.144-1.491c-0.678-0.48-1.298-0.96-1.872-1.402
		c-0.574-0.439-1.083-0.865-1.541-1.232c-0.073-0.062-0.134-0.114-0.204-0.173c0.606-0.183,1.211-0.366,1.814-0.547
		c0.264,0.007,0.527-0.069,0.754-0.227c2.019-0.608,4.024-1.209,6.006-1.798c10.142-3.041,19.758-5.817,28.671-8.249
		c3.266-0.898,6.438-1.737,9.508-2.533c0.21,0.053,0.471,0.117,0.78,0.191c0.875,0.208,2.126,0.488,3.637,0.779
		c0.342,0.066,0.701,0.132,1.068,0.198c0.001,0.004,0,0.008,0.001,0.012c0.001,0.003,0.004,0.009,0.005,0.012
		c0,0,0.135,0.362,0.387,0.977c0.254,0.618,0.625,1.492,1.101,2.53c0.525,1.151,1.184,2.503,1.938,3.917l-0.041-0.028
		c0,0-0.73,1.851-1.076,2.945c-0.279,0.161-0.67,0.374-0.891,0.437c0,0-0.951,0.313-1.263,0.352l-1.062,0.52l-1.314,0.388
		l-0.293,0.101l0.186,0.079c0,0-1.071,0.29-1.164,0.489l0.145,0.13l-0.893,0.427l0.227,0.1c0,0-0.51,0.127-0.8,0.413l0.205,0.141
		l-0.755,0.405l0.211,0.112c0,0-0.735,0.289-0.86,0.769l0.2,0.17l-0.803,0.702l0.294,0.155l-0.826,0.744l0.373,0.154l-0.642,0.639
		c0,0,0.268,0.044,0.378,0.018c0.112-0.026-0.582,0.571-0.582,0.571s0.334-0.081,0.469-0.074c0.137,0.01-0.481,0.605-0.481,0.605
		l0.268,0.226l-0.548,0.809l0.214,0.004l-0.48,0.499c0,0,0.369,0.26,0.523,0.147l-0.591,0.814c0,0,0.365,0.183,0.487,0.097
		l-0.568,0.666c0,0,0.373,0.23,0.472,0.186c0.099-0.044-0.43,0.644-0.43,0.644s0.17,0.09,0.268,0.045
		c0.1-0.044-0.233,0.951-0.233,0.951s0.143,0.053,0.323-0.024l-0.278,0.488c0,0,0.301,0.02,0.456-0.09l-0.394,0.8
		c0,0,0.462,0.062,0.626-0.002l-0.261,0.84c0,0,0.353,0.166,0.543,0.03c0,0-0.242,1.086-0.11,1.125c0,0,0.299,0.125,0.496,0.037
		l-0.064,0.857c0,0,0.259,0.255,0.45,0.12l-0.012,0.789c0,0,0.273,0.2,0.425,0.116l0.062,0.82c0,0,0.362,0.031,0.464-0.044
		c0.105-0.074-0.039,0.967-0.039,0.967s0.479,0.157,0.564,0.096l0.256,1.123c0,0,0.169-0.017,0.32-0.098l0.254,1.124
		c0,0,0.121,0.097,0.337-0.004l0.029,0.371c0,0,0.111-0.026,0.197-0.089l0.093,1.736c0,0,0.002,0.076,0.232,0.069
		c0,0-0.069,0.779,0.124,0.904c0,0,0.146,1.408-0.349,1.994c0,0,1.412-1.237,1.835-1.957l0.326,0.16c0,0,0.169-0.563,0.534-0.747
		c0,0,0.718-0.821,0.71-1.233l0.342,0.147c0,0,0.585-0.859,0.678-1.134l0.428,0.165c0,0,0.587-0.678,0.507-1.117l0.363,0.289
		c0,0,0.445-0.473,0.543-0.882l0.408,0.129c0,0,0.589-0.708,0.531-1.188l0.46,0.169c0,0,0.605-0.432,0.468-0.879
		c0,0,0.312,0.219,0.418,0.146c0,0,0.255-0.445,0.115-0.788l0.375,0.124c0,0,0.265-0.579,0.145-0.856l0.329,0.129
		c0,0,0.068-0.23,0.026-0.618l0.281,0.137c0,0,0.205-0.04,0.123-0.556l0.343,0.147c0,0,0.333-0.263,0.051-0.767l0.388,0.143
		c0,0,0.334-0.447,0.082-0.945l0.35,0.089c0,0,0.442-0.549,0.053-1.133l0.438,0.028c0,0,0.021-0.666-0.216-0.997l0.381,0.28
		c0,0-0.021-0.508-0.199-0.721l0.367,0.078c0,0,0.105-0.363-0.232-0.803l0.403,0.055c0,0,0.178-0.335-0.291-0.917l0.385-0.012
		c0,0-0.029-0.658-0.358-1.051l0.459,0.171c0,0,0.059-0.721-0.318-1.105l0.491,0.067c0,0,0.167-0.352-0.336-0.908l0.42-0.143
		c0,0-0.106-0.443-0.517-0.833l0.439-0.077c0,0-0.411-0.831-0.646-0.977l0.229-0.006c0,0-0.229-0.542-0.457-0.642l0.183-0.001
		c0,0-0.231-0.617-0.502-0.737l0.229-0.007c0,0-0.146-0.39-0.377-0.566l0.106,0.003c0,0-0.585-1.15-1.258-1.69
		c0,0-0.852-1.116-1.389-1.361c0,0-0.6-0.435-0.703-0.545l-0.774-0.572c0,0-0.83-0.505-0.878-0.863
		c-0.011-0.083-0.024-0.136-0.039-0.173c0.137-0.548,0.546-2.108,0.824-2.488c0.566,1.051,1.183,2.132,1.844,3.191
		c0.399,0.647,0.817,1.282,1.241,1.898c0.423,0.617,0.859,1.211,1.293,1.776c0.222,0.28,0.439,0.553,0.652,0.821
		c0.223,0.262,0.438,0.517,0.65,0.766c0.22,0.242,0.433,0.477,0.64,0.704c0.214,0.219,0.422,0.432,0.621,0.635
		c0.41,0.395,0.789,0.754,1.146,1.05c0.345,0.306,0.673,0.542,0.935,0.745c0.174,0.134,0.32,0.23,0.448,0.316
		c0.039,0.22,0.074,0.465,0.064,0.607c0,0-0.009,0.797-0.06,1.042l0.118,0.936l-0.048,1.088l0.002,0.248l0.105-0.121
		c0,0-0.057,0.881,0.067,1.003l0.136-0.076l0.092,0.784l0.134-0.144c0,0-0.035,0.415,0.105,0.709l0.158-0.119l0.111,0.673
		l0.139-0.129c0,0,0.025,0.627,0.355,0.845l0.182-0.106l0.32,0.786l0.195-0.182l0.346,0.814l0.213-0.241l0.313,0.649
		c0,0,0.104-0.19,0.113-0.281c0.007-0.092,0.278,0.586,0.278,0.586s0.026-0.272,0.067-0.371c0.041-0.101,0.33,0.517,0.33,0.517
		l0.241-0.141l0.465,0.619l0.06-0.158l0.251,0.488c0,0,0.291-0.21,0.248-0.356l0.46,0.657c0,0,0.232-0.229,0.197-0.341l0.355,0.599
		c0,0,0.27-0.222,0.264-0.307c-0.01-0.086,0.374,0.488,0.374,0.488s0.109-0.104,0.101-0.189c-0.007-0.087,0.657,0.42,0.657,0.42
		s0.078-0.093,0.067-0.248l0.293,0.335c0,0,0.093-0.222,0.051-0.369l0.501,0.504c0,0,0.166-0.331,0.161-0.471l0.562,0.414
		c0,0,0.22-0.225,0.164-0.403c0,0,0.756,0.465,0.818,0.373c0,0,0.172-0.19,0.158-0.363l0.627,0.271c0,0,0.261-0.131,0.208-0.309
		l0.593,0.21c0,0,0.219-0.152,0.197-0.289l0.632,0.165c0,0,0.116-0.265,0.087-0.361s0.718,0.281,0.718,0.281
		s0.242-0.321,0.218-0.401l0.912,0.099c0,0,0.031-0.134,0.01-0.27l0.912,0.101c0,0,0.104-0.066,0.082-0.255l0.288,0.072
		c0,0,0.008-0.091-0.016-0.171l1.331,0.379c0,0,0.059,0.02,0.112-0.157c0,0,0.569,0.254,0.714,0.141c0,0,1.1,0.253,1.414,0.776
		c0,0-0.57-1.382-1.001-1.887l0.204-0.204c0,0-0.383-0.272-0.426-0.596c0,0-0.435-0.753-0.747-0.854l0.201-0.219
		c0,0-0.498-0.662-0.681-0.802l0.236-0.282c0,0-0.36-0.616-0.712-0.67l0.312-0.199c0,0-0.242-0.457-0.526-0.636l0.203-0.273
		c0,0-0.38-0.627-0.758-0.709l0.246-0.304c0,0-0.168-0.564-0.542-0.577c0,0,0.246-0.179,0.217-0.276c0,0-0.268-0.309-0.562-0.291
		l0.19-0.251c0,0-0.37-0.349-0.61-0.329l0.184-0.214c0,0-0.156-0.111-0.459-0.182l0.177-0.176c0,0,0.021-0.164-0.388-0.236
		l0.2-0.219c0,0-0.113-0.318-0.566-0.237l0.208-0.255c0,0-0.25-0.367-0.69-0.306l0.156-0.24c0,0-0.299-0.476-0.839-0.332
		l0.134-0.322c0,0-0.498-0.188-0.806-0.095l0.308-0.216c0,0-0.388-0.114-0.593-0.035l0.153-0.257c0,0-0.245-0.173-0.662-0.03
		l0.143-0.291c0,0-0.207-0.221-0.766-0.017l0.091-0.293c0,0-0.504-0.15-0.884-0.001l0.246-0.302c0,0-0.527-0.232-0.914-0.046
		l0.177-0.352c0,0-0.221-0.216-0.771,0.019l0.003-0.354c0,0-0.363-0.033-0.763,0.175l0.056-0.352c0,0-0.731,0.095-0.903,0.234
		l0.055-0.175c0,0-0.467,0.034-0.601,0.179l0.049-0.136c0,0-0.526,0.016-0.687,0.186l0.055-0.173c0,0-0.334,0.01-0.524,0.137
		l0.028-0.079c0,0-1.016,0.145-1.597,0.512c0,0-1.063,0.352-1.383,0.695c0,0-0.484,0.338-0.593,0.389l-0.631,0.436
		c0,0-0.595,0.495-0.875,0.438c-0.065-0.013-0.109-0.017-0.141-0.015c-0.44-0.285-1.828-1.207-1.692-1.381l-0.242,0.179
		c0,0,1.206,1.028,1.941,1.571c0.009,0.049,0.02,0.102,0.029,0.157c-0.123-0.088-0.262-0.188-0.426-0.32
		c-0.256-0.211-0.574-0.455-0.91-0.772c-0.348-0.303-0.714-0.672-1.11-1.077c-0.193-0.209-0.392-0.426-0.599-0.65
		c-0.2-0.232-0.405-0.472-0.616-0.718c-0.204-0.253-0.412-0.514-0.625-0.78c-0.204-0.273-0.412-0.551-0.625-0.835
		c-0.413-0.574-0.829-1.176-1.231-1.801c-0.403-0.624-0.8-1.267-1.178-1.922c-1.524-2.608-2.802-5.351-3.683-7.434
		c-0.44-1.043-0.784-1.921-1.017-2.538c-0.095-0.253-0.17-0.458-0.226-0.615c2.729,0.467,6.004,0.904,9.31,1.076
		c1.023,0.06,2.048,0.084,3.056,0.089c1.009,0.007,2.001-0.024,2.96-0.07c0.414-0.029,0.817-0.057,1.219-0.085l-0.217,0.228
		c0,0,1.714,1.011,2.738,1.523c0.116,0.302,0.265,0.72,0.292,0.947c0,0,0.158,0.987,0.15,1.301l0.347,1.131l0.177,1.357l0.057,0.305
		l0.104-0.171c0,0,0.12,1.102,0.302,1.224l0.15-0.122l0.282,0.949l0.133-0.208c0,0,0.048,0.522,0.284,0.853l0.172-0.179l0.282,0.808
		l0.142-0.191c0,0,0.171,0.77,0.625,0.968l0.2-0.17l0.567,0.903l0.2-0.266l0.604,0.931l0.211-0.343l0.529,0.733
		c0,0,0.086-0.257,0.077-0.371c-0.01-0.114,0.472,0.665,0.472,0.665s-0.026-0.343,0.001-0.475c0.029-0.133,0.522,0.569,0.522,0.569
		l0.266-0.228l0.71,0.666l0.039-0.209l0.417,0.551c0,0,0.313-0.324,0.228-0.494l0.711,0.712c0,0,0.238-0.332,0.173-0.465
		l0.567,0.664c0,0,0.285-0.332,0.258-0.437c-0.028-0.105,0.567,0.523,0.567,0.523s0.115-0.151,0.087-0.256
		c-0.027-0.105,0.901,0.379,0.901,0.379s0.077-0.132,0.03-0.322l0.436,0.351c0,0,0.066-0.294-0.018-0.465l0.729,0.513
		c0,0,0.134-0.447,0.097-0.617l0.786,0.388c0,0,0.221-0.322,0.117-0.532c0,0,1.033,0.409,1.09,0.286c0,0,0.171-0.276,0.116-0.485
		l0.835,0.2c0,0,0.293-0.219,0.19-0.429l0.776,0.135c0,0,0.24-0.238,0.183-0.4l0.817,0.066c0,0,0.086-0.351,0.03-0.464
		c-0.057-0.115,0.949,0.189,0.949,0.189s0.229-0.445,0.182-0.541l1.149-0.077c0,0,0.009-0.169-0.047-0.333l1.148-0.073
		c0,0,0.115-0.105,0.049-0.333l0.371,0.028c0,0-0.011-0.114-0.057-0.209l1.727,0.182c0,0,0.077,0.009,0.106-0.221
		c0,0,0.757,0.191,0.911,0.02c0,0,1.415,0.075,1.916,0.655c0,0-1.002-1.586-1.646-2.118l0.209-0.294c0,0-0.531-0.257-0.654-0.646
		c0,0-0.698-0.837-1.107-0.893l0.201-0.313c0,0-0.758-0.712-1.015-0.846l0.229-0.398c0,0-0.577-0.685-1.022-0.676l0.343-0.313
		c0,0-0.397-0.513-0.786-0.674l0.19-0.379c0,0-0.605-0.695-1.09-0.713l0.238-0.428c0,0-0.332-0.664-0.794-0.599
		c0,0,0.265-0.274,0.209-0.389c0,0-0.398-0.322-0.76-0.238l0.182-0.351c0,0-0.531-0.351-0.825-0.276l0.179-0.304
		c0,0-0.216-0.104-0.604-0.124l0.18-0.255c0,0-0.009-0.209-0.531-0.209l0.2-0.314c0,0-0.208-0.37-0.75-0.171l0.201-0.361
		c0,0-0.388-0.399-0.92-0.227l0.143-0.333c0,0-0.475-0.523-1.11-0.228l0.097-0.427c0,0-0.655-0.124-1.015,0.055l0.333-0.331
		c0,0-0.504-0.059-0.742,0.087l0.135-0.353c0,0-0.342-0.161-0.827,0.104l0.115-0.389c0,0-0.304-0.227-0.951,0.143l0.049-0.38
		c0,0-0.654-0.076-1.093,0.19l0.24-0.427c0,0-0.703-0.172-1.141,0.142l0.143-0.475c0,0-0.322-0.22-0.949,0.19l-0.073-0.437
		c0,0-0.456,0.037-0.903,0.38l-0.008-0.447c0,0-0.886,0.275-1.066,0.484l0.03-0.227c0,0-0.57,0.142-0.704,0.352l0.027-0.181
		c0,0-0.644,0.132-0.807,0.38l0.028-0.228c0,0-0.408,0.084-0.617,0.285l0.019-0.105c0,0-1.226,0.398-1.863,0.979
		c0,0-0.962,0.517-1.411,0.979c-0.355,0.073-0.73,0.143-1.122,0.215c-0.378,0.056-0.771,0.116-1.178,0.177
		c-0.41,0.045-0.832,0.091-1.268,0.14c-0.436,0.032-0.883,0.066-1.341,0.099c-0.459,0.019-0.928,0.038-1.404,0.058
		c-0.954,0.018-1.939,0.018-2.939-0.017c-1.001-0.035-2.018-0.09-3.03-0.18c-4.056-0.33-8.067-1.065-11.041-1.73
		c-1.046-0.234-1.962-0.458-2.713-0.651c0.479-0.123,0.964-0.248,1.438-0.37c4.082-1.022,7.961-1.977,11.616-2.819
		c6.956-1.62,13.101-2.819,18.259-3.711c0.548,0.06,1.13,0.118,1.587,0.146c0.233,0.242,0.547,0.583,0.666,0.79
		c0,0,0.554,0.883,0.673,1.189l0.795,0.943l0.722,1.232l0.177,0.27l0.032-0.206c0,0,0.563,1.009,0.788,1.054l0.096-0.181
		l0.657,0.797l0.043-0.254c0,0,0.257,0.482,0.62,0.704l0.091-0.243l0.601,0.662l0.06-0.241c0,0,0.476,0.67,0.994,0.677l0.123-0.247
		l0.911,0.635l0.085-0.336l0.959,0.647l0.062-0.414l0.807,0.488c0,0-0.021-0.282-0.076-0.388c-0.056-0.105,0.724,0.447,0.724,0.447
		s-0.165-0.318-0.189-0.457c-0.028-0.139,0.73,0.334,0.73,0.334l0.162-0.327l0.954,0.35l-0.048-0.217l0.624,0.36
		c0,0,0.17-0.44,0.017-0.567l0.975,0.394c0,0,0.094-0.416-0.025-0.516l0.817,0.406c0,0,0.138-0.436,0.069-0.525
		c-0.071-0.087,0.758,0.271,0.758,0.271s0.049-0.193-0.021-0.281c-0.069-0.09,1.02-0.003,1.02-0.003s0.021-0.159-0.104-0.321
		l0.561,0.16c0,0-0.055-0.311-0.204-0.441l0.908,0.196c0,0-0.053-0.482-0.159-0.632l0.914,0.052c0,0,0.08-0.398-0.104-0.556
		c0,0,1.157-0.029,1.164-0.172c0,0,0.052-0.333-0.088-0.512l0.883-0.148c0,0,0.195-0.328,0.01-0.488l0.801-0.188
		c0,0,0.132-0.325,0.013-0.458l0.812-0.269c0,0-0.06-0.373-0.162-0.458c-0.1-0.087,0.989-0.205,0.989-0.205s0.037-0.521-0.046-0.593
		l1.073-0.543c0,0-0.062-0.166-0.182-0.299l1.074-0.54c0,0,0.067-0.147-0.09-0.338l0.368-0.126c0,0-0.056-0.105-0.141-0.177
		l1.732-0.53c0,0,0.078-0.022,0.012-0.252c0,0,0.808-0.127,0.884-0.354c0,0,1.39-0.503,2.106-0.15
		C394.487,62.928,392.879,61.812,392.045,61.564"/>
</g>
</svg>
